<?xml version="1.0" encoding="utf-8"?>
<!-- Generator: Adobe Illustrator 17.0.0, SVG Export Plug-In . SVG Version: 6.00 Build 0)  -->
<!DOCTYPE svg PUBLIC "-//W3C//DTD SVG 1.1//EN" "http://www.w3.org/Graphics/SVG/1.1/DTD/svg11.dtd">
<svg version="1.1" id="Layer_1" xmlns="http://www.w3.org/2000/svg" xmlns:xlink="http://www.w3.org/1999/xlink" x="0px" y="0px"
	 width="57.59px" height="33.935px" viewBox="0 0 57.59 33.935" enable-background="new 0 0 57.59 33.935" xml:space="preserve">
<pattern  x="-98.085" y="-110.262" width="334.213" height="190.18" patternUnits="userSpaceOnUse" id="Bugaboo" viewBox="125.734 -361.64 334.213 190.18" overflow="visible">
	<g>
		<polygon fill="none" points="125.734,-361.64 459.947,-361.64 459.947,-171.46 125.734,-171.46 		"/>
		<g>
			<path fill="#09B9C5" d="M438.308-133.57c-1.044,2.906-4.255,4.424-7.168,3.379c-0.674-0.242-16.579-8.965-32.584-16.602
				c-0.451,1.045-1.022,2.029-1.72,2.904c0,0,46.422,49.041,47.572,50.406c0.964,1.143,1.425,2.594,1.299,4.084
				c-0.126,1.496-0.825,2.844-1.968,3.811c-1.146,0.965-2.596,1.426-4.089,1.301c-1.49-0.127-2.844-0.828-3.811-1.969
				c-1.141-1.359-42.257-54.73-42.257-54.73c-1.178,0.736-2.476,1.293-3.854,1.621c0,0,1.087,30.916,1.048,32.465
				c-0.039,1.496-0.66,2.887-1.745,3.918c-1.083,1.031-2.505,1.574-4.001,1.539c-0.113-0.008-0.223-0.01-0.332-0.02
				c-2.952-0.248-5.203-2.768-5.127-5.727c0.042-1.535,4.532-32.113,4.532-32.113c-1.125-0.236-2.19-0.613-3.181-1.123
				c0,0-25.189,44.379-26.407,46.148c-1.14,1.65-3.09,2.57-5.09,2.398c-0.968-0.082-1.902-0.418-2.705-0.973
				c-1.231-0.852-2.061-2.129-2.327-3.602c-0.272-1.473,0.051-2.961,0.899-4.193c1.22-1.762,33.455-41.18,33.455-41.18
				c-0.425-0.344-0.822-0.723-1.201-1.115c-10.191,10.766-25.463,26.877-26.31,27.59c-2.362,1.992-5.902,1.695-7.895-0.666
				c-1.991-2.359-1.691-5.9,0.669-7.895c0.849-0.713,19.423-13.141,31.755-21.375c-0.125-0.209-0.26-0.416-0.375-0.633
				c0,0-45.473,18.227-47.217,18.783c-0.71,0.229-1.444,0.313-2.181,0.248c-2.263-0.191-4.174-1.709-4.864-3.873
				c-0.456-1.424-0.331-2.943,0.352-4.27c0.685-1.332,1.849-2.316,3.273-2.773c1.743-0.559,49.344-11.994,49.344-11.994
				c-0.165-1.02-0.225-2.074-0.134-3.15c0.025-0.293,0.073-0.58,0.116-0.865c0,0-37.515-6.635-39.398-7.17
				c-2.969-0.844-4.699-3.947-3.855-6.92c0.732-2.574,3.193-4.281,5.855-4.055c0.358,0.029,0.718,0.094,1.066,0.193
				c1.882,0.535,37.314,14.633,37.314,14.633c0.67-1.48,1.607-2.811,2.751-3.924c0,0-44.094-46.308-45.478-47.946
				c-0.965-1.145-1.426-2.596-1.3-4.086c0.126-1.493,0.825-2.845,1.969-3.81c1.146-0.965,2.595-1.429,4.086-1.303
				c1.491,0.127,2.845,0.828,3.809,1.972c1.388,1.641,38.943,53.565,38.943,53.565c0.539-0.348,1.109-0.645,1.693-0.908
				c-7.186-15.741-19.527-42.794-19.765-43.489c-1.005-2.923,0.556-6.118,3.476-7.122c2.921-1.005,6.115,0.554,7.12,3.479
				c0.237,0.69,7.27,29.585,11.356,46.396c0.889-0.221,1.804-0.379,2.749-0.398c0,0-1.111-31.086-0.951-32.976
				c0.261-3.079,2.977-5.372,6.057-5.11c3.077,0.261,5.37,2.978,5.109,6.056c-0.161,1.9-6.515,32.492-6.515,32.492
				c1.117,0.307,2.164,0.764,3.135,1.338c0,0,26.371-46.34,27.595-48.125c1.136-1.661,3.092-2.587,5.101-2.417
				c0.958,0.081,1.886,0.414,2.686,0.961c2.547,1.747,3.204,5.241,1.455,7.79c-1.224,1.787-34.818,43.274-34.818,43.274
				c1.429,1.281,2.566,2.867,3.311,4.654c0,0,45.029-11.795,46.576-12.084c0.501-0.092,1.008-0.117,1.511-0.074
				c2.499,0.211,4.568,2.08,5.028,4.549c0.277,1.471-0.037,2.961-0.881,4.199c-0.846,1.232-2.121,2.064-3.593,2.34
				c-1.553,0.293-47.679,6.424-47.679,6.424c-0.008,0.213-0.006,0.424-0.025,0.639c-0.047,0.561-0.145,1.102-0.262,1.639
				c17.107,4.527,34.934,8.16,35.613,8.402C437.834-139.689,439.352-136.478,438.308-133.57z M395.996-151.081
				c0.432-5.086-3.357-9.576-8.445-10.008c-5.088-0.432-9.579,3.359-10.01,8.445c-0.432,5.09,3.358,9.58,8.447,10.012
				C391.075-142.201,395.565-145.99,395.996-151.081z"/>
			<path fill="#FED307" d="M382.863-142.552c-2.299-3.973-0.945-9.076,3.032-11.383c0.921-0.533,24.681-9.59,48.692-20.451
				c-0.755-1.516-1.322-3.105-1.65-4.739c0,0-87.744,5.725-90.397,5.725c-2.225,0-4.314-0.867-5.888-2.439
				c-1.575-1.576-2.44-3.664-2.44-5.887c0.003-2.227,0.866-4.318,2.441-5.893c1.572-1.572,3.666-2.438,5.889-2.439
				c2.639,0.004,90.219,4.457,90.219,4.457c0.289-2.045,0.9-4.051,1.85-5.932c0,0-36.162-28.398-37.884-29.929
				c-1.663-1.476-2.646-3.515-2.777-5.734c-0.134-2.22,0.612-4.358,2.088-6.021c0.114-0.125,0.224-0.246,0.339-0.362
				c3.113-3.112,8.131-3.255,11.42-0.331c1.703,1.519,32.135,35.928,32.135,35.928c1.347-1.051,2.797-1.899,4.326-2.535
				c0,0-26.27-71.152-27.111-74.232c-0.783-2.877,0.041-5.972,2.151-8.082c1.021-1.02,2.298-1.76,3.699-2.141
				c2.147-0.583,4.393-0.298,6.321,0.808c1.934,1.106,3.316,2.897,3.902,5.044c0.834,3.075,14.711,77.477,14.711,77.477
				c0.799-0.156,1.609-0.243,2.42-0.296c-2.463-21.898-6.127-54.689-6.127-56.334c0.001-4.593,3.733-8.331,8.325-8.331
				c4.592,0,8.327,3.736,8.327,8.328c-0.002,1.646-3.688,34.66-6.154,56.561c0.359,0.059,0.723,0.104,1.078,0.181
				c0,0,22.881-69.127,23.92-71.642c0.422-1.024,1.029-1.94,1.807-2.717c2.387-2.386,5.943-3.1,9.063-1.813
				c2.057,0.847,3.662,2.443,4.516,4.495c0.857,2.056,0.859,4.318,0.014,6.376c-1.035,2.517-33.673,67.547-33.673,67.547
				c1.318,0.791,2.572,1.732,3.707,2.867c0.311,0.31,0.588,0.64,0.871,0.964c0,0,43.497-36.258,45.909-37.882
				c3.805-2.565,8.992-1.555,11.559,2.253c2.221,3.298,1.799,7.729-1.01,10.537c-0.377,0.376-0.793,0.724-1.24,1.024
				c-2.412,1.624-52.39,28.361-52.39,28.361c1.043,2.183,1.655,4.519,1.821,6.884c0,0,78.478-5.699,81.664-5.703
				c2.225,0,4.316,0.869,5.887,2.439c1.576,1.576,2.443,3.664,2.441,5.889c-0.002,2.227-0.865,4.319-2.436,5.889
				c-1.574,1.572-3.668,2.438-5.891,2.438c-3.193,0.004-81.783-7.106-81.783-7.106c-0.122,0.945-0.331,1.877-0.593,2.797
				c24.768,6.922,67.331,18.836,68.347,19.23c4.283,1.662,6.418,6.496,4.76,10.775c-1.658,4.281-6.49,6.414-10.777,4.754
				c-1.01-0.391-40.576-20.1-63.585-31.57c-0.604,1.223-1.305,2.41-2.186,3.504c0,0,36.376,28.533,38.37,30.529
				c3.248,3.246,3.25,8.527,0,11.775c-3.244,3.246-8.527,3.244-11.775-0.002c-2.004-2.006-30.665-38.541-30.665-38.541
				c-1.42,0.975-2.941,1.727-4.523,2.277c0,0,22.626,56.17,23.479,59.271c0.799,2.883-0.025,5.992-2.144,8.111
				c-1.01,1.01-2.277,1.746-3.666,2.131c-4.428,1.219-9.025-1.385-10.245-5.814c-0.855-3.104-11.043-62.824-11.043-62.824
				c-2.825,0.393-5.718,0.166-8.46-0.701c0,0-29.764,62.451-30.918,64.488c-0.373,0.656-0.832,1.258-1.361,1.787
				c-2.635,2.635-6.743,3.195-9.99,1.35c-1.934-1.094-3.326-2.881-3.924-5.023c-0.59-2.143-0.312-4.389,0.787-6.326
				c1.154-2.041,38.402-60.314,38.402-60.314c-0.235-0.211-0.479-0.414-0.704-0.639c-0.591-0.592-1.112-1.223-1.608-1.869
				c-21.541,15.092-41.356,31.213-42.283,31.752C390.271-137.224,385.167-138.58,382.863-142.552z M441.914-173.181
				c5.365,5.365,14.1,5.365,19.464,0c5.369-5.369,5.367-14.104,0.002-19.467c-5.368-5.368-14.1-5.368-19.469,0
				C436.547-187.285,436.546-178.55,441.914-173.181z"/>
			<path fill="#A5CD39" d="M562.32-87.8c-2.891,1.988-6.861,1.258-8.856-1.637c-0.461-0.67-16.506-29.857-26.207-47.518
				c-1.109,0.666-2.289,1.193-3.514,1.539c0,0,6.928,32.676,7.086,34.697c0.131,1.695-0.406,3.34-1.512,4.631
				c-1.107,1.295-2.648,2.078-4.344,2.209c-1.695,0.131-3.342-0.404-4.635-1.512c-1.289-1.104-2.074-2.648-2.209-4.344
				c-0.152-2.012,0.688-35.162,0.688-35.162c-1.576-0.102-3.141-0.447-4.631-1.061c0,0-19.506,29.246-20.57,30.648
				c-1.027,1.355-2.523,2.227-4.207,2.457c-1.686,0.232-3.359-0.209-4.713-1.236c-0.102-0.078-0.201-0.154-0.297-0.236
				c-2.555-2.188-2.963-6.004-0.928-8.686c1.057-1.387,25.482-26.619,25.482-26.619c-0.881-0.965-1.613-2.021-2.189-3.148
				c0,0-52.679,24.238-54.978,25.061c-2.146,0.768-4.554,0.322-6.288-1.16c-0.838-0.719-1.478-1.65-1.852-2.693
				c-0.571-1.604-0.486-3.332,0.241-4.867c0.73-1.539,2.015-2.699,3.614-3.273c2.294-0.818,58.186-15.799,58.186-15.799
				c-0.166-0.6-0.279-1.213-0.369-1.828c-16.545,3.174-41.324,7.908-42.577,8.006c-3.501,0.271-6.572-2.352-6.844-5.852
				c-0.271-3.502,2.355-6.57,5.854-6.842c1.255-0.096,26.641,0.76,43.479,1.34c0.025-0.275,0.037-0.553,0.076-0.83
				c0,0-28.273-5.02-30.25-5.664c-0.807-0.264-1.541-0.67-2.18-1.217c-1.959-1.68-2.715-4.348-1.918-6.801
				c0.525-1.617,1.648-2.938,3.158-3.709c1.518-0.775,3.242-0.91,4.861-0.389c1.98,0.641,27.705,13.34,27.705,13.34
				c0.525-1.049,1.168-2.061,1.965-2.992c0.219-0.256,0.455-0.486,0.684-0.721c0,0-30.211-31.008-31.594-32.751
				c-2.18-2.748-1.717-6.763,1.035-8.945c2.381-1.885,5.783-1.829,8.09,0.147c0.309,0.267,0.6,0.561,0.854,0.883
				c1.381,1.744,24.725,38.253,24.725,38.253c1.6-0.92,3.344-1.527,5.137-1.793c0,0-7.258-37.165-7.447-39.593
				c-0.133-1.697,0.404-3.342,1.51-4.631c1.107-1.295,2.648-2.08,4.344-2.209c1.697-0.131,3.342,0.401,4.633,1.509
				c1.291,1.104,2.076,2.648,2.209,4.344c0.19,2.434-2.309,40.442-2.309,40.442c0.729,0.039,1.449,0.141,2.168,0.287
				c3.809-19.29,10.367-52.437,10.607-53.236c1.016-3.364,4.572-5.276,7.934-4.267c3.361,1.011,5.273,4.566,4.262,7.932
				c-0.238,0.795-12.918,32.121-20.299,50.338c0.967,0.387,1.916,0.852,2.801,1.459c0,0,13.416-22.254,14.816-23.893
				c2.283-2.666,6.309-2.982,8.979-0.697c2.666,2.281,2.977,6.309,0.695,8.977c-1.41,1.646-21.381,18.492-21.381,18.492
				c0.826,1.025,1.49,2.141,2.002,3.314c0,0,38.08-19.127,40.393-19.963c2.148-0.777,4.568-0.336,6.309,1.152
				c0.83,0.711,1.467,1.635,1.84,2.672c1.191,3.301-0.519,6.959-3.824,8.152c-2.314,0.836-43.836,10.693-43.836,10.693
				c0.469,2.129,0.467,4.348-0.033,6.488c0,0,34.953,12.33,36.574,13.09c0.521,0.246,1.01,0.559,1.443,0.934
				c2.164,1.852,2.834,4.949,1.621,7.533c-0.719,1.537-2,2.707-3.598,3.287c-1.598,0.576-3.326,0.498-4.867-0.223
				c-1.627-0.762-33.838-19.041-33.838-19.041c-0.145,0.191-0.287,0.387-0.445,0.574c-0.416,0.484-0.865,0.92-1.328,1.336
				c12.777,15.525,33.975,41.287,34.439,41.961C565.943-93.761,565.211-89.79,562.32-87.8z M527.742-142.611
				c3.771-4.406,3.254-11.063-1.152-14.834c-4.41-3.775-11.066-3.258-14.838,1.148c-3.775,4.41-3.258,11.068,1.152,14.842
				C517.313-137.683,523.969-138.201,527.742-142.611z"/>
			<path fill="#EB2227" d="M478.119-222.827c-2.082,1.064-4.645,0.24-5.711-1.844c-0.246-0.483-8.331-21.151-13.219-33.655
				c-0.79,0.343-1.616,0.59-2.454,0.714c0,0,1.761,22.186,1.69,23.535c-0.06,1.132-0.557,2.173-1.397,2.93
				c-0.843,0.76-1.93,1.145-3.061,1.085c-1.131-0.061-2.173-0.555-2.931-1.398c-0.758-0.841-1.143-1.93-1.085-3.062
				c0.072-1.342,3.485-23.172,3.485-23.172c-1.031-0.204-2.037-0.567-2.969-1.101c0,0-15.408,17.642-16.233,18.479
				c-0.795,0.806-1.858,1.252-2.991,1.259c-1.134,0.009-2.201-0.427-3.008-1.221c-0.06-0.063-0.119-0.121-0.175-0.185
				c-1.499-1.665-1.439-4.221,0.136-5.817c0.818-0.826,19.131-15.392,19.131-15.392c-0.498-0.714-0.891-1.474-1.175-2.27
				c0,0-36.895,11.474-38.484,11.819c-1.483,0.321-3.036-0.18-4.054-1.309c-0.491-0.546-0.834-1.216-0.992-1.938
				c-0.238-1.109-0.033-2.244,0.58-3.196c0.614-0.953,1.564-1.608,2.67-1.851c1.586-0.343,39.805-5.424,39.805-5.424
				c-0.057-0.409-0.08-0.824-0.085-1.239c-11.206,0.672-27.985,1.663-28.821,1.619c-2.337-0.123-4.141-2.119-4.018-4.456
				c0.122-2.336,2.123-4.139,4.458-4.016c0.838,0.045,17.534,2.8,28.61,4.634c0.041-0.18,0.071-0.362,0.121-0.542
				c0,0-18.246-5.754-19.498-6.35c-0.51-0.244-0.958-0.576-1.334-0.992c-1.15-1.278-1.419-3.105-0.681-4.659
				c0.486-1.023,1.342-1.798,2.406-2.179c1.07-0.381,2.221-0.321,3.244,0.163c1.255,0.595,17.155,11.203,17.155,11.203
				c0.438-0.648,0.949-1.263,1.557-1.809c0.166-0.15,0.342-0.281,0.514-0.417c0,0-17.288-23.092-18.051-24.363
				c-1.203-2.003-0.551-4.616,1.455-5.82c1.736-1.041,3.978-0.71,5.332,0.795c0.182,0.202,0.348,0.422,0.488,0.656
				c0.763,1.272,13.038,27.405,13.038,27.405c1.136-0.47,2.342-0.721,3.548-0.742c0,0-1.592-25.181-1.507-26.801
				c0.059-1.133,0.556-2.173,1.397-2.93c0.843-0.76,1.929-1.146,3.06-1.085c1.133,0.06,2.173,0.553,2.931,1.397
				c0.758,0.841,1.145,1.929,1.085,3.06c-0.084,1.625-5.011,26.522-5.011,26.522c0.477,0.088,0.944,0.219,1.406,0.376
				c4.181-12.416,11.371-33.751,11.599-34.259c0.961-2.135,3.476-3.092,5.609-2.135c2.135,0.957,3.092,3.472,2.133,5.607
				c-0.227,0.505-11.306,20.108-17.752,31.509c0.605,0.339,1.192,0.728,1.724,1.205c0,0,10.784-13.546,11.851-14.508
				c1.738-1.564,4.426-1.427,5.992,0.314c1.565,1.737,1.424,4.424-0.314,5.991c-1.072,0.967-15.722,10.374-15.722,10.374
				c0.457,0.749,0.801,1.542,1.037,2.362c0,0,26.81-9.355,28.409-9.707c1.488-0.328,3.049,0.173,4.07,1.306
				c0.486,0.542,0.828,1.207,0.984,1.923c0.504,2.284-0.943,4.553-3.229,5.058c-1.603,0.352-29.886,3.286-29.886,3.286
				c0.125,1.446-0.067,2.912-0.582,4.283c0,0,22.032,11.16,23.038,11.802c0.324,0.207,0.619,0.457,0.873,0.742
				c1.27,1.41,1.445,3.514,0.422,5.116c-0.607,0.955-1.557,1.616-2.66,1.863c-1.107,0.242-2.242,0.042-3.197-0.569
				c-1.01-0.643-20.717-15.496-20.717-15.496c-0.112,0.113-0.222,0.231-0.343,0.341c-0.317,0.284-0.652,0.532-0.993,0.767
				c7.103,11.362,18.889,30.21,19.139,30.695C481.027-226.454,480.201-223.893,478.119-222.827z M459.997-262.023
				c2.873-2.586,3.103-7.027,0.518-9.9c-2.589-2.874-7.032-3.105-9.903-0.52c-2.874,2.589-3.107,7.031-0.518,9.905
				C452.681-259.665,457.123-259.435,459.997-262.023z"/>
		</g>
		<g>
			<path fill="#FED307" d="M215.757-47.462c-2.299-3.973-0.945-9.076,3.032-11.383c0.921-0.533,24.681-9.59,48.692-20.451
				c-0.755-1.516-1.322-3.105-1.65-4.738c0,0-87.744,5.725-90.396,5.725c-2.225,0-4.314-0.867-5.888-2.439
				c-1.575-1.576-2.44-3.664-2.44-5.887c0.003-2.227,0.866-4.318,2.441-5.893c1.572-1.572,3.666-2.438,5.889-2.439
				c2.639,0.004,90.219,4.457,90.219,4.457c0.289-2.045,0.9-4.051,1.85-5.932c0,0-36.162-28.398-37.884-29.929
				c-1.663-1.476-2.646-3.515-2.777-5.734c-0.134-2.22,0.612-4.358,2.088-6.021c0.114-0.125,0.224-0.246,0.339-0.362
				c3.113-3.112,8.131-3.255,11.42-0.331c1.703,1.518,32.135,35.928,32.135,35.928c1.347-1.051,2.797-1.899,4.326-2.535
				c0,0-26.271-71.152-27.111-74.233c-0.783-2.877,0.041-5.972,2.151-8.082c1.021-1.019,2.298-1.76,3.699-2.141
				c2.147-0.583,4.394-0.298,6.321,0.808c1.934,1.106,3.316,2.898,3.902,5.044c0.834,3.075,14.711,77.477,14.711,77.477
				c0.799-0.156,1.609-0.243,2.42-0.296c-2.463-21.898-6.127-54.689-6.127-56.334c0.001-4.593,3.733-8.331,8.325-8.331
				s8.327,3.736,8.327,8.328c-0.002,1.646-3.688,34.66-6.154,56.562c0.359,0.06,0.723,0.104,1.078,0.181
				c0,0,22.881-69.127,23.92-71.642c0.422-1.024,1.029-1.94,1.807-2.717c2.387-2.386,5.943-3.101,9.063-1.813
				c2.057,0.847,3.662,2.443,4.516,4.495c0.857,2.056,0.859,4.318,0.014,6.376c-1.035,2.517-33.673,67.547-33.673,67.547
				c1.318,0.791,2.572,1.732,3.707,2.867c0.31,0.31,0.588,0.64,0.871,0.964c0,0,43.497-36.258,45.909-37.882
				c3.805-2.566,8.992-1.555,11.559,2.253c2.221,3.298,1.799,7.729-1.01,10.537c-0.377,0.376-0.793,0.724-1.24,1.024
				c-2.412,1.624-52.39,28.362-52.39,28.362c1.043,2.183,1.655,4.519,1.821,6.884c0,0,78.479-5.699,81.664-5.703
				c2.225,0,4.316,0.869,5.887,2.439c1.576,1.576,2.443,3.664,2.441,5.889c-0.002,2.227-0.865,4.318-2.436,5.889
				c-1.574,1.572-3.668,2.438-5.891,2.438c-3.193,0.004-81.783-7.105-81.783-7.105c-0.122,0.945-0.331,1.877-0.593,2.797
				c24.769,6.922,67.331,18.836,68.347,19.231c4.283,1.662,6.418,6.496,4.76,10.775c-1.658,4.281-6.49,6.414-10.777,4.754
				c-1.01-0.391-40.576-20.1-63.585-31.57c-0.604,1.223-1.305,2.41-2.186,3.504c0,0,36.376,28.533,38.37,30.529
				c3.248,3.246,3.25,8.527,0,11.775c-3.244,3.246-8.527,3.244-11.775-0.002c-2.004-2.006-30.665-38.541-30.665-38.541
				c-1.42,0.975-2.941,1.727-4.523,2.277c0,0,22.626,56.17,23.479,59.272c0.799,2.883-0.025,5.992-2.145,8.111
				c-1.01,1.01-2.277,1.746-3.666,2.131c-4.428,1.219-9.024-1.385-10.245-5.814c-0.855-3.104-11.043-62.824-11.043-62.824
				c-2.825,0.393-5.718,0.166-8.46-0.701c0,0-29.764,62.451-30.918,64.488c-0.373,0.656-0.832,1.258-1.361,1.787
				c-2.635,2.635-6.743,3.195-9.99,1.35c-1.934-1.094-3.326-2.881-3.924-5.023c-0.59-2.143-0.311-4.389,0.787-6.326
				c1.154-2.041,38.402-60.314,38.402-60.314c-0.235-0.211-0.479-0.414-0.704-0.639c-0.591-0.592-1.112-1.223-1.608-1.869
				c-21.541,15.092-41.356,31.213-42.283,31.752C223.165-42.134,218.061-43.49,215.757-47.462z M274.808-78.091
				c5.365,5.365,14.1,5.365,19.464,0c5.369-5.369,5.367-14.104,0.002-19.467c-5.368-5.369-14.1-5.369-19.469,0
				C269.44-92.195,269.439-83.46,274.808-78.091z"/>
			<path fill="#EB2227" d="M311.013-127.737c-2.082,1.064-4.645,0.24-5.711-1.844c-0.246-0.483-8.331-21.151-13.219-33.655
				c-0.79,0.343-1.616,0.59-2.454,0.714c0,0,1.761,22.186,1.69,23.535c-0.06,1.132-0.557,2.173-1.397,2.93
				c-0.843,0.76-1.93,1.145-3.062,1.085c-1.131-0.061-2.173-0.555-2.931-1.397c-0.758-0.841-1.143-1.93-1.085-3.063
				c0.072-1.342,3.485-23.172,3.485-23.172c-1.031-0.204-2.037-0.567-2.969-1.101c0,0-15.408,17.642-16.233,18.479
				c-0.795,0.806-1.858,1.252-2.991,1.259c-1.134,0.009-2.201-0.427-3.008-1.221c-0.06-0.063-0.119-0.121-0.175-0.185
				c-1.499-1.665-1.44-4.221,0.136-5.817c0.818-0.826,19.131-15.392,19.131-15.392c-0.498-0.714-0.891-1.474-1.175-2.27
				c0,0-36.895,11.474-38.484,11.819c-1.483,0.321-3.036-0.18-4.054-1.31c-0.491-0.546-0.834-1.216-0.992-1.938
				c-0.238-1.109-0.033-2.244,0.58-3.196c0.614-0.953,1.564-1.608,2.67-1.851c1.586-0.343,39.805-5.424,39.805-5.424
				c-0.057-0.409-0.08-0.824-0.085-1.239c-11.206,0.672-27.985,1.663-28.821,1.619c-2.337-0.123-4.141-2.119-4.018-4.456
				c0.122-2.336,2.123-4.139,4.458-4.016c0.838,0.045,17.534,2.8,28.61,4.634c0.041-0.18,0.071-0.362,0.121-0.542
				c0,0-18.246-5.754-19.498-6.35c-0.51-0.244-0.958-0.576-1.334-0.992c-1.149-1.278-1.419-3.105-0.681-4.659
				c0.486-1.023,1.342-1.798,2.406-2.179c1.07-0.381,2.221-0.321,3.244,0.163c1.255,0.595,17.155,11.203,17.155,11.203
				c0.438-0.648,0.949-1.263,1.557-1.809c0.166-0.15,0.342-0.281,0.514-0.417c0,0-17.288-23.092-18.051-24.363
				c-1.203-2.003-0.551-4.616,1.455-5.82c1.736-1.041,3.979-0.71,5.332,0.795c0.182,0.202,0.348,0.422,0.488,0.656
				c0.763,1.273,13.038,27.405,13.038,27.405c1.136-0.47,2.342-0.721,3.548-0.742c0,0-1.592-25.181-1.507-26.801
				c0.059-1.133,0.556-2.173,1.397-2.93c0.843-0.76,1.929-1.145,3.06-1.085c1.133,0.06,2.173,0.553,2.931,1.396
				c0.758,0.841,1.145,1.929,1.085,3.06c-0.084,1.625-5.011,26.522-5.011,26.522c0.477,0.088,0.944,0.219,1.406,0.376
				c4.181-12.416,11.371-33.751,11.599-34.259c0.961-2.135,3.477-3.092,5.609-2.135c2.135,0.957,3.092,3.472,2.133,5.607
				c-0.227,0.505-11.306,20.108-17.752,31.509c0.605,0.339,1.192,0.729,1.724,1.205c0,0,10.784-13.546,11.851-14.508
				c1.738-1.564,4.426-1.427,5.992,0.314c1.564,1.737,1.424,4.424-0.315,5.991c-1.072,0.967-15.722,10.374-15.722,10.374
				c0.457,0.749,0.801,1.542,1.037,2.362c0,0,26.81-9.354,28.409-9.707c1.488-0.328,3.049,0.173,4.07,1.306
				c0.486,0.542,0.828,1.207,0.984,1.923c0.504,2.284-0.943,4.553-3.228,5.058c-1.604,0.352-29.886,3.286-29.886,3.286
				c0.125,1.446-0.067,2.912-0.582,4.283c0,0,22.032,11.16,23.038,11.802c0.324,0.207,0.619,0.457,0.873,0.742
				c1.27,1.41,1.445,3.514,0.422,5.116c-0.607,0.955-1.557,1.616-2.66,1.863c-1.107,0.242-2.242,0.042-3.197-0.569
				c-1.01-0.643-20.717-15.496-20.717-15.496c-0.112,0.113-0.222,0.232-0.343,0.341c-0.317,0.284-0.652,0.532-0.993,0.767
				c7.102,11.362,18.889,30.21,19.139,30.695C313.921-131.364,313.095-128.803,311.013-127.737z M292.891-166.934
				c2.873-2.586,3.103-7.027,0.519-9.9c-2.589-2.874-7.032-3.105-9.903-0.52c-2.874,2.589-3.107,7.031-0.518,9.905
				C285.574-164.575,290.017-164.345,292.891-166.934z"/>
		</g>
		<g>
			<path fill="#FED307" d="M48.65-142.552c-2.299-3.973-0.945-9.076,3.032-11.383c0.921-0.533,24.681-9.59,48.692-20.451
				c-0.755-1.516-1.322-3.105-1.65-4.739c0,0-87.744,5.725-90.396,5.725c-2.225,0-4.314-0.867-5.888-2.439
				C0.865-177.415,0-179.504,0-181.727c0.003-2.227,0.866-4.318,2.441-5.893c1.572-1.572,3.666-2.438,5.889-2.439
				c2.639,0.004,90.219,4.457,90.219,4.457c0.289-2.045,0.9-4.051,1.85-5.932c0,0-36.162-28.398-37.884-29.929
				c-1.663-1.476-2.646-3.515-2.777-5.734c-0.134-2.22,0.612-4.358,2.088-6.021c0.114-0.125,0.224-0.246,0.339-0.362
				c3.113-3.112,8.131-3.255,11.42-0.331c1.703,1.519,32.135,35.928,32.135,35.928c1.347-1.051,2.797-1.899,4.326-2.535
				c0,0-26.271-71.152-27.111-74.232c-0.783-2.877,0.041-5.972,2.151-8.082c1.021-1.02,2.298-1.76,3.699-2.141
				c2.147-0.583,4.393-0.298,6.321,0.808c1.934,1.106,3.316,2.897,3.902,5.044c0.834,3.075,14.711,77.477,14.711,77.477
				c0.799-0.156,1.609-0.243,2.42-0.296c-2.463-21.898-6.127-54.689-6.127-56.334c0.001-4.593,3.733-8.331,8.325-8.331
				c4.592,0,8.327,3.736,8.327,8.328c-0.002,1.646-3.687,34.66-6.154,56.561c0.359,0.059,0.723,0.104,1.078,0.181
				c0,0,22.881-69.127,23.92-71.642c0.422-1.024,1.029-1.94,1.807-2.717c2.387-2.386,5.943-3.1,9.063-1.813
				c2.057,0.847,3.662,2.443,4.516,4.495c0.857,2.056,0.859,4.318,0.014,6.376c-1.035,2.517-33.673,67.547-33.673,67.547
				c1.318,0.791,2.572,1.732,3.707,2.867c0.311,0.31,0.588,0.64,0.871,0.964c0,0,43.497-36.258,45.909-37.882
				c3.805-2.565,8.992-1.555,11.559,2.253c2.221,3.298,1.799,7.729-1.01,10.537c-0.377,0.376-0.793,0.724-1.24,1.024
				c-2.412,1.624-52.39,28.361-52.39,28.361c1.043,2.183,1.655,4.519,1.821,6.884c0,0,78.479-5.699,81.664-5.703
				c2.225,0,4.316,0.869,5.887,2.439c1.576,1.576,2.443,3.664,2.441,5.889c-0.002,2.227-0.865,4.319-2.436,5.889
				c-1.574,1.572-3.668,2.438-5.891,2.438c-3.193,0.004-81.783-7.106-81.783-7.106c-0.122,0.945-0.331,1.877-0.593,2.797
				c24.768,6.922,67.331,18.836,68.347,19.23c4.283,1.662,6.418,6.496,4.76,10.775c-1.658,4.281-6.49,6.414-10.777,4.754
				c-1.01-0.391-40.576-20.1-63.585-31.57c-0.604,1.223-1.305,2.41-2.186,3.504c0,0,36.376,28.533,38.37,30.529
				c3.248,3.246,3.25,8.527,0,11.775c-3.244,3.246-8.527,3.244-11.775-0.002c-2.004-2.006-30.665-38.541-30.665-38.541
				c-1.42,0.975-2.941,1.727-4.524,2.277c0,0,22.626,56.17,23.479,59.271c0.799,2.883-0.025,5.992-2.145,8.111
				c-1.01,1.01-2.277,1.746-3.666,2.131c-4.428,1.219-9.024-1.385-10.245-5.814c-0.855-3.104-11.043-62.824-11.043-62.824
				c-2.825,0.393-5.718,0.166-8.46-0.701c0,0-29.764,62.451-30.918,64.488c-0.373,0.656-0.832,1.258-1.361,1.787
				c-2.635,2.635-6.743,3.195-9.99,1.35c-1.934-1.094-3.326-2.881-3.924-5.023c-0.59-2.143-0.312-4.389,0.787-6.326
				c1.154-2.041,38.402-60.314,38.402-60.314c-0.235-0.211-0.479-0.414-0.704-0.639c-0.591-0.592-1.112-1.223-1.608-1.869
				c-21.541,15.092-41.356,31.213-42.283,31.752C56.059-137.224,50.954-138.58,48.65-142.552z M107.701-173.181
				c5.365,5.365,14.1,5.365,19.464,0c5.369-5.369,5.367-14.104,0.002-19.467c-5.368-5.368-14.1-5.368-19.469,0
				C102.334-187.285,102.333-178.55,107.701-173.181z"/>
			<path fill="#A5CD39" d="M228.107-87.8c-2.891,1.988-6.861,1.258-8.855-1.637c-0.461-0.67-16.506-29.857-26.207-47.518
				c-1.109,0.666-2.289,1.193-3.514,1.539c0,0,6.928,32.676,7.086,34.697c0.131,1.695-0.406,3.34-1.512,4.631
				c-1.107,1.295-2.648,2.078-4.344,2.209c-1.695,0.131-3.342-0.404-4.635-1.512c-1.289-1.104-2.074-2.648-2.209-4.344
				c-0.152-2.012,0.688-35.162,0.688-35.162c-1.576-0.102-3.141-0.447-4.631-1.061c0,0-19.506,29.246-20.57,30.648
				c-1.027,1.355-2.523,2.227-4.207,2.457c-1.686,0.232-3.359-0.209-4.713-1.236c-0.102-0.078-0.201-0.154-0.297-0.236
				c-2.555-2.188-2.963-6.004-0.928-8.686c1.057-1.387,25.482-26.619,25.482-26.619c-0.881-0.965-1.613-2.021-2.19-3.148
				c0,0-52.679,24.238-54.977,25.061c-2.146,0.768-4.554,0.322-6.288-1.16c-0.838-0.719-1.477-1.65-1.852-2.693
				c-0.571-1.604-0.486-3.332,0.241-4.867c0.73-1.539,2.015-2.699,3.614-3.273c2.294-0.818,58.186-15.799,58.186-15.799
				c-0.166-0.6-0.279-1.213-0.369-1.828c-16.545,3.174-41.324,7.908-42.577,8.006c-3.501,0.271-6.572-2.352-6.844-5.852
				c-0.271-3.502,2.355-6.57,5.854-6.842c1.255-0.096,26.641,0.76,43.479,1.34c0.025-0.275,0.037-0.553,0.076-0.83
				c0,0-28.273-5.02-30.25-5.664c-0.807-0.264-1.541-0.67-2.18-1.217c-1.959-1.68-2.715-4.348-1.918-6.801
				c0.525-1.617,1.648-2.938,3.158-3.709c1.518-0.775,3.242-0.91,4.861-0.389c1.98,0.641,27.705,13.34,27.705,13.34
				c0.525-1.049,1.168-2.061,1.965-2.992c0.219-0.256,0.455-0.486,0.684-0.721c0,0-30.211-31.008-31.594-32.751
				c-2.18-2.748-1.717-6.763,1.035-8.945c2.381-1.885,5.783-1.829,8.09,0.147c0.309,0.267,0.6,0.561,0.854,0.883
				c1.381,1.744,24.725,38.253,24.725,38.253c1.6-0.92,3.344-1.527,5.137-1.793c0,0-7.258-37.165-7.447-39.593
				c-0.133-1.697,0.404-3.342,1.51-4.631c1.107-1.295,2.648-2.08,4.344-2.209c1.697-0.131,3.342,0.401,4.633,1.509
				c1.291,1.104,2.076,2.648,2.209,4.344c0.19,2.434-2.309,40.442-2.309,40.442c0.729,0.039,1.449,0.141,2.168,0.287
				c3.809-19.29,10.367-52.437,10.607-53.236c1.016-3.364,4.572-5.276,7.934-4.267c3.361,1.011,5.273,4.566,4.262,7.932
				c-0.238,0.795-12.918,32.121-20.299,50.338c0.967,0.387,1.916,0.852,2.801,1.459c0,0,13.416-22.254,14.816-23.893
				c2.283-2.666,6.309-2.982,8.979-0.697c2.666,2.281,2.977,6.309,0.695,8.977c-1.41,1.646-21.381,18.492-21.381,18.492
				c0.826,1.025,1.49,2.141,2.002,3.314c0,0,38.08-19.127,40.393-19.963c2.148-0.777,4.568-0.336,6.309,1.152
				c0.83,0.711,1.467,1.635,1.84,2.672c1.191,3.301-0.52,6.959-3.824,8.152c-2.314,0.836-43.836,10.693-43.836,10.693
				c0.469,2.129,0.467,4.348-0.033,6.488c0,0,34.953,12.33,36.574,13.09c0.521,0.246,1.01,0.559,1.443,0.934
				c2.164,1.852,2.834,4.949,1.621,7.533c-0.719,1.537-2,2.707-3.598,3.287c-1.598,0.576-3.326,0.498-4.867-0.223
				c-1.627-0.762-33.838-19.041-33.838-19.041c-0.145,0.191-0.287,0.387-0.445,0.574c-0.416,0.484-0.865,0.92-1.328,1.336
				c12.777,15.525,33.975,41.287,34.439,41.961C231.73-93.761,230.998-89.79,228.107-87.8z M193.529-142.611
				c3.771-4.406,3.254-11.063-1.152-14.834c-4.41-3.775-11.066-3.258-14.838,1.148c-3.775,4.41-3.258,11.068,1.152,14.842
				C183.1-137.683,189.756-138.201,193.529-142.611z"/>
			<path fill="#EB2227" d="M143.906-222.827c-2.082,1.064-4.645,0.24-5.711-1.844c-0.246-0.483-8.331-21.151-13.219-33.655
				c-0.79,0.343-1.616,0.59-2.454,0.714c0,0,1.761,22.186,1.69,23.535c-0.06,1.132-0.557,2.173-1.397,2.93
				c-0.843,0.76-1.93,1.145-3.062,1.085c-1.131-0.061-2.173-0.555-2.931-1.398c-0.758-0.841-1.143-1.93-1.085-3.062
				c0.072-1.342,3.485-23.172,3.485-23.172c-1.031-0.204-2.037-0.567-2.969-1.101c0,0-15.408,17.642-16.233,18.479
				c-0.795,0.806-1.858,1.252-2.991,1.259c-1.134,0.009-2.201-0.427-3.008-1.221c-0.06-0.063-0.119-0.121-0.175-0.185
				c-1.499-1.665-1.439-4.221,0.136-5.817c0.818-0.826,19.131-15.392,19.131-15.392c-0.498-0.714-0.891-1.474-1.175-2.27
				c0,0-36.895,11.474-38.484,11.819c-1.483,0.321-3.036-0.18-4.054-1.309c-0.491-0.546-0.834-1.216-0.992-1.938
				c-0.238-1.109-0.033-2.244,0.58-3.196c0.614-0.953,1.563-1.608,2.67-1.851c1.586-0.343,39.805-5.424,39.805-5.424
				c-0.057-0.409-0.08-0.824-0.085-1.239c-11.206,0.672-27.985,1.663-28.821,1.619c-2.337-0.123-4.141-2.119-4.018-4.456
				c0.122-2.336,2.123-4.139,4.458-4.016c0.838,0.045,17.534,2.8,28.61,4.634c0.041-0.18,0.071-0.362,0.121-0.542
				c0,0-18.246-5.754-19.498-6.35c-0.51-0.244-0.958-0.576-1.334-0.992c-1.149-1.278-1.419-3.105-0.681-4.659
				c0.486-1.023,1.342-1.798,2.406-2.179c1.07-0.381,2.221-0.321,3.244,0.163c1.255,0.595,17.155,11.203,17.155,11.203
				c0.438-0.648,0.949-1.263,1.557-1.809c0.166-0.15,0.342-0.281,0.514-0.417c0,0-17.288-23.092-18.051-24.363
				c-1.203-2.003-0.551-4.616,1.455-5.82c1.736-1.041,3.979-0.71,5.332,0.795c0.182,0.202,0.348,0.422,0.488,0.656
				c0.763,1.272,13.038,27.405,13.038,27.405c1.136-0.47,2.342-0.721,3.548-0.742c0,0-1.592-25.181-1.507-26.801
				c0.059-1.133,0.556-2.173,1.397-2.93c0.843-0.76,1.929-1.146,3.06-1.085c1.133,0.06,2.173,0.553,2.931,1.397
				c0.758,0.841,1.145,1.929,1.085,3.06c-0.084,1.625-5.011,26.522-5.011,26.522c0.477,0.088,0.944,0.219,1.406,0.376
				c4.181-12.416,11.371-33.751,11.599-34.259c0.961-2.135,3.477-3.092,5.609-2.135c2.135,0.957,3.092,3.472,2.133,5.607
				c-0.227,0.505-11.306,20.108-17.752,31.509c0.605,0.339,1.192,0.728,1.724,1.205c0,0,10.784-13.546,11.851-14.508
				c1.738-1.564,4.426-1.427,5.992,0.314c1.564,1.737,1.424,4.424-0.314,5.991c-1.072,0.967-15.722,10.374-15.722,10.374
				c0.457,0.749,0.801,1.542,1.037,2.362c0,0,26.81-9.355,28.409-9.707c1.488-0.328,3.049,0.173,4.07,1.306
				c0.486,0.542,0.828,1.207,0.984,1.923c0.504,2.284-0.943,4.553-3.229,5.058c-1.604,0.352-29.886,3.286-29.886,3.286
				c0.125,1.446-0.067,2.912-0.582,4.283c0,0,22.032,11.16,23.038,11.802c0.324,0.207,0.619,0.457,0.873,0.742
				c1.27,1.41,1.445,3.514,0.422,5.116c-0.607,0.955-1.557,1.616-2.66,1.863c-1.107,0.242-2.242,0.042-3.197-0.569
				c-1.01-0.643-20.717-15.496-20.717-15.496c-0.112,0.113-0.222,0.231-0.343,0.341c-0.317,0.284-0.652,0.532-0.993,0.767
				c7.103,11.362,18.889,30.21,19.139,30.695C146.814-226.454,145.988-223.893,143.906-222.827z M125.784-262.023
				c2.873-2.586,3.104-7.027,0.519-9.9c-2.589-2.874-7.032-3.105-9.903-0.52c-2.874,2.589-3.107,7.031-0.518,9.905
				C118.468-259.665,122.91-259.435,125.784-262.023z"/>
		</g>
		<g>
			<path fill="#09B9C5" d="M438.308-323.749c-1.044,2.906-4.255,4.424-7.168,3.379c-0.674-0.242-16.579-8.965-32.584-16.602
				c-0.451,1.045-1.022,2.029-1.72,2.904c0,0,46.422,49.041,47.572,50.406c0.964,1.143,1.425,2.594,1.299,4.084
				c-0.126,1.496-0.825,2.844-1.968,3.811c-1.146,0.965-2.596,1.426-4.089,1.301c-1.49-0.127-2.844-0.828-3.811-1.969
				c-1.141-1.359-42.257-54.73-42.257-54.73c-1.178,0.736-2.476,1.293-3.854,1.621c0,0,1.087,30.916,1.048,32.465
				c-0.039,1.496-0.66,2.887-1.745,3.918c-1.083,1.031-2.505,1.574-4.001,1.539c-0.113-0.008-0.223-0.01-0.332-0.02
				c-2.952-0.248-5.203-2.768-5.127-5.727c0.042-1.535,4.532-32.113,4.532-32.113c-1.125-0.236-2.19-0.613-3.181-1.123
				c0,0-25.189,44.379-26.407,46.149c-1.14,1.65-3.09,2.57-5.09,2.398c-0.968-0.082-1.902-0.418-2.705-0.973
				c-1.231-0.852-2.061-2.129-2.327-3.602c-0.272-1.473,0.051-2.961,0.899-4.193c1.22-1.762,33.455-41.18,33.455-41.18
				c-0.425-0.344-0.822-0.723-1.201-1.115c-10.191,10.766-25.463,26.877-26.31,27.59c-2.362,1.992-5.902,1.695-7.895-0.666
				c-1.991-2.359-1.691-5.9,0.669-7.895c0.849-0.713,19.423-13.141,31.755-21.375c-0.125-0.209-0.26-0.416-0.375-0.633
				c0,0-45.473,18.227-47.217,18.783c-0.71,0.228-1.444,0.313-2.181,0.248c-2.263-0.191-4.174-1.709-4.864-3.873
				c-0.456-1.424-0.331-2.943,0.352-4.27c0.685-1.332,1.849-2.316,3.273-2.773c1.743-0.559,49.344-11.994,49.344-11.994
				c-0.165-1.02-0.225-2.074-0.134-3.15c0.025-0.293,0.073-0.58,0.116-0.865c0,0-37.515-6.635-39.398-7.17
				c-2.969-0.844-4.699-3.947-3.855-6.92c0.732-2.574,3.193-4.281,5.855-4.055c0.358,0.029,0.718,0.094,1.066,0.193
				c1.882,0.535,37.314,14.633,37.314,14.633c0.67-1.48,1.607-2.811,2.751-3.924c0,0-44.094-46.308-45.478-47.946
				c-0.965-1.145-1.426-2.596-1.3-4.086c0.126-1.493,0.825-2.845,1.969-3.81c1.146-0.965,2.595-1.429,4.086-1.303
				c1.491,0.127,2.845,0.828,3.809,1.972c1.388,1.641,38.943,53.565,38.943,53.565c0.539-0.348,1.109-0.645,1.693-0.908
				c-7.186-15.741-19.527-42.794-19.765-43.489c-1.005-2.923,0.556-6.118,3.476-7.122c2.921-1.005,6.115,0.554,7.12,3.479
				c0.237,0.69,7.27,29.585,11.356,46.396c0.889-0.221,1.804-0.379,2.749-0.398c0,0-1.111-31.085-0.951-32.976
				c0.261-3.079,2.977-5.372,6.057-5.11c3.077,0.261,5.37,2.978,5.109,6.056c-0.161,1.9-6.515,32.492-6.515,32.492
				c1.117,0.307,2.164,0.764,3.135,1.338c0,0,26.371-46.34,27.595-48.125c1.136-1.661,3.092-2.587,5.101-2.417
				c0.958,0.081,1.886,0.414,2.686,0.961c2.547,1.747,3.204,5.241,1.455,7.79c-1.224,1.787-34.818,43.274-34.818,43.274
				c1.429,1.281,2.566,2.867,3.311,4.654c0,0,45.029-11.795,46.576-12.084c0.501-0.092,1.008-0.117,1.511-0.074
				c2.499,0.211,4.568,2.08,5.028,4.549c0.277,1.471-0.037,2.961-0.881,4.199c-0.846,1.232-2.121,2.064-3.593,2.34
				c-1.553,0.293-47.679,6.424-47.679,6.424c-0.008,0.213-0.006,0.424-0.025,0.639c-0.047,0.561-0.145,1.102-0.262,1.639
				c17.107,4.527,34.934,8.16,35.613,8.402C437.834-329.869,439.352-326.658,438.308-323.749z M395.996-341.261
				c0.432-5.086-3.357-9.576-8.445-10.008c-5.088-0.432-9.579,3.359-10.01,8.445c-0.432,5.09,3.358,9.58,8.447,10.012
				C391.075-332.38,395.565-336.169,395.996-341.261z"/>
			<path fill="#FED307" d="M382.863-332.732c-2.299-3.973-0.945-9.076,3.032-11.383c0.921-0.533,24.681-9.59,48.692-20.451
				c-0.755-1.516-1.322-3.105-1.65-4.739c0,0-87.744,5.725-90.397,5.725c-2.225,0-4.314-0.867-5.888-2.439
				c-1.575-1.576-2.44-3.665-2.44-5.887c0.003-2.227,0.866-4.318,2.441-5.893c1.572-1.572,3.666-2.438,5.889-2.439
				c2.639,0.004,90.219,4.457,90.219,4.457c0.289-2.045,0.9-4.051,1.85-5.932c0,0-36.162-28.397-37.884-29.929
				c-1.663-1.476-2.646-3.515-2.777-5.734c-0.134-2.22,0.612-4.358,2.088-6.02c0.114-0.125,0.224-0.246,0.339-0.362
				c3.113-3.112,8.131-3.255,11.42-0.331c1.703,1.518,32.135,35.928,32.135,35.928c1.347-1.051,2.797-1.899,4.326-2.535
				c0,0-26.27-71.152-27.111-74.232c-0.783-2.877,0.041-5.972,2.151-8.082c1.021-1.02,2.298-1.76,3.699-2.141
				c2.147-0.583,4.393-0.298,6.321,0.808c1.934,1.106,3.316,2.897,3.902,5.044c0.834,3.075,14.711,77.477,14.711,77.477
				c0.799-0.156,1.609-0.243,2.42-0.296c-2.463-21.898-6.127-54.69-6.127-56.334c0.001-4.593,3.733-8.331,8.325-8.331
				c4.592,0,8.327,3.736,8.327,8.328c-0.002,1.647-3.688,34.66-6.154,56.562c0.359,0.06,0.723,0.103,1.078,0.181
				c0,0,22.881-69.127,23.92-71.642c0.422-1.025,1.029-1.94,1.807-2.717c2.387-2.386,5.943-3.101,9.063-1.813
				c2.057,0.847,3.662,2.443,4.516,4.495c0.857,2.056,0.859,4.318,0.014,6.376c-1.035,2.517-33.673,67.547-33.673,67.547
				c1.318,0.791,2.572,1.732,3.707,2.867c0.311,0.31,0.588,0.64,0.871,0.964c0,0,43.497-36.258,45.909-37.882
				c3.805-2.565,8.992-1.555,11.559,2.253c2.221,3.298,1.799,7.729-1.01,10.537c-0.377,0.376-0.793,0.724-1.24,1.024
				c-2.412,1.624-52.39,28.361-52.39,28.361c1.043,2.183,1.655,4.519,1.821,6.884c0,0,78.478-5.699,81.664-5.703
				c2.225,0,4.316,0.869,5.887,2.439c1.576,1.576,2.443,3.664,2.441,5.889c-0.002,2.227-0.865,4.319-2.436,5.889
				c-1.574,1.572-3.668,2.438-5.891,2.438c-3.193,0.004-81.783-7.106-81.783-7.106c-0.122,0.945-0.331,1.878-0.593,2.797
				c24.768,6.922,67.331,18.836,68.347,19.23c4.283,1.662,6.418,6.496,4.76,10.775c-1.658,4.281-6.49,6.414-10.777,4.754
				c-1.01-0.391-40.576-20.1-63.585-31.57c-0.604,1.223-1.305,2.41-2.186,3.504c0,0,36.376,28.533,38.37,30.529
				c3.248,3.246,3.25,8.527,0,11.775c-3.244,3.246-8.527,3.244-11.775-0.002c-2.004-2.006-30.665-38.541-30.665-38.541
				c-1.42,0.975-2.941,1.727-4.523,2.277c0,0,22.626,56.17,23.479,59.271c0.799,2.883-0.025,5.992-2.144,8.111
				c-1.01,1.01-2.277,1.746-3.666,2.131c-4.428,1.219-9.025-1.385-10.245-5.815c-0.855-3.103-11.043-62.824-11.043-62.824
				c-2.825,0.393-5.718,0.166-8.46-0.701c0,0-29.764,62.451-30.918,64.488c-0.373,0.656-0.832,1.258-1.361,1.787
				c-2.635,2.635-6.743,3.195-9.99,1.35c-1.934-1.094-3.326-2.881-3.924-5.023c-0.59-2.143-0.312-4.389,0.787-6.326
				c1.154-2.041,38.402-60.314,38.402-60.314c-0.235-0.211-0.479-0.414-0.704-0.639c-0.591-0.592-1.112-1.223-1.608-1.869
				c-21.541,15.092-41.356,31.213-42.283,31.752C390.271-327.404,385.167-328.759,382.863-332.732z M441.914-363.361
				c5.365,5.365,14.1,5.365,19.464,0c5.369-5.369,5.367-14.104,0.002-19.467c-5.368-5.368-14.1-5.368-19.469,0
				C436.547-377.465,436.546-368.73,441.914-363.361z"/>
			<path fill="#A5CD39" d="M562.32-277.98c-2.891,1.988-6.861,1.258-8.856-1.637c-0.461-0.67-16.506-29.857-26.207-47.518
				c-1.109,0.666-2.289,1.193-3.514,1.539c0,0,6.928,32.676,7.086,34.697c0.131,1.695-0.406,3.34-1.512,4.631
				c-1.107,1.295-2.648,2.078-4.344,2.209c-1.695,0.131-3.342-0.404-4.635-1.512c-1.289-1.103-2.074-2.648-2.209-4.344
				c-0.152-2.012,0.688-35.162,0.688-35.162c-1.576-0.102-3.141-0.447-4.631-1.061c0,0-19.506,29.246-20.57,30.648
				c-1.027,1.355-2.523,2.227-4.207,2.457c-1.686,0.233-3.359-0.209-4.713-1.236c-0.102-0.078-0.201-0.154-0.297-0.236
				c-2.555-2.188-2.963-6.004-0.928-8.686c1.057-1.387,25.482-26.619,25.482-26.619c-0.881-0.965-1.613-2.021-2.189-3.148
				c0,0-52.679,24.238-54.978,25.06c-2.146,0.768-4.554,0.322-6.288-1.16c-0.838-0.719-1.478-1.65-1.852-2.693
				c-0.571-1.604-0.486-3.332,0.241-4.867c0.73-1.539,2.015-2.699,3.614-3.273c2.294-0.818,58.186-15.799,58.186-15.799
				c-0.166-0.6-0.279-1.213-0.369-1.828c-16.545,3.174-41.324,7.908-42.577,8.006c-3.501,0.272-6.572-2.352-6.844-5.852
				c-0.271-3.502,2.355-6.57,5.854-6.842c1.255-0.096,26.641,0.76,43.479,1.34c0.025-0.275,0.037-0.553,0.076-0.83
				c0,0-28.273-5.02-30.25-5.664c-0.807-0.264-1.541-0.67-2.18-1.217c-1.959-1.68-2.715-4.348-1.918-6.801
				c0.525-1.617,1.648-2.938,3.158-3.709c1.518-0.775,3.242-0.91,4.861-0.389c1.98,0.641,27.705,13.34,27.705,13.34
				c0.525-1.049,1.168-2.061,1.965-2.992c0.219-0.256,0.455-0.486,0.684-0.721c0,0-30.211-31.008-31.594-32.751
				c-2.18-2.748-1.717-6.763,1.035-8.945c2.381-1.885,5.783-1.829,8.09,0.147c0.309,0.267,0.6,0.561,0.854,0.883
				c1.381,1.744,24.725,38.253,24.725,38.253c1.6-0.92,3.344-1.527,5.137-1.793c0,0-7.258-37.165-7.447-39.593
				c-0.133-1.697,0.404-3.342,1.51-4.631c1.107-1.295,2.648-2.08,4.344-2.209c1.697-0.131,3.342,0.401,4.633,1.509
				c1.291,1.103,2.076,2.648,2.209,4.344c0.19,2.434-2.309,40.442-2.309,40.442c0.729,0.039,1.449,0.141,2.168,0.287
				c3.809-19.289,10.367-52.437,10.607-53.236c1.016-3.364,4.572-5.276,7.934-4.267c3.361,1.011,5.273,4.566,4.262,7.932
				c-0.238,0.795-12.918,32.121-20.299,50.338c0.967,0.387,1.916,0.852,2.801,1.459c0,0,13.416-22.254,14.816-23.893
				c2.283-2.666,6.309-2.982,8.979-0.697c2.666,2.281,2.977,6.309,0.695,8.977c-1.41,1.646-21.381,18.492-21.381,18.492
				c0.826,1.025,1.49,2.141,2.002,3.315c0,0,38.08-19.127,40.393-19.963c2.148-0.777,4.568-0.336,6.309,1.152
				c0.83,0.711,1.467,1.635,1.84,2.672c1.191,3.301-0.519,6.959-3.824,8.152c-2.314,0.836-43.836,10.693-43.836,10.693
				c0.469,2.129,0.467,4.348-0.033,6.488c0,0,34.953,12.33,36.574,13.09c0.521,0.246,1.01,0.559,1.443,0.934
				c2.164,1.852,2.834,4.949,1.621,7.533c-0.719,1.537-2,2.707-3.598,3.287c-1.598,0.576-3.326,0.498-4.867-0.223
				c-1.627-0.762-33.838-19.041-33.838-19.041c-0.145,0.191-0.287,0.387-0.445,0.574c-0.416,0.484-0.865,0.92-1.328,1.336
				c12.777,15.525,33.975,41.287,34.439,41.961C565.943-283.941,565.211-279.97,562.32-277.98z M527.742-332.79
				c3.771-4.406,3.254-11.063-1.152-14.834c-4.41-3.775-11.066-3.258-14.838,1.148c-3.775,4.41-3.258,11.068,1.152,14.842
				C517.313-327.863,523.969-328.38,527.742-332.79z"/>
		</g>
		<g>
			<path fill="#09B9C5" d="M271.201-228.66c-1.044,2.906-4.255,4.424-7.168,3.379c-0.674-0.242-16.579-8.965-32.584-16.602
				c-0.451,1.045-1.022,2.029-1.72,2.904c0,0,46.422,49.041,47.572,50.406c0.964,1.143,1.425,2.594,1.299,4.084
				c-0.126,1.496-0.825,2.844-1.968,3.811c-1.145,0.965-2.596,1.426-4.089,1.301c-1.49-0.127-2.844-0.828-3.81-1.969
				c-1.141-1.359-42.257-54.73-42.257-54.73c-1.178,0.736-2.476,1.293-3.854,1.621c0,0,1.087,30.916,1.048,32.465
				c-0.039,1.496-0.66,2.887-1.745,3.918c-1.083,1.031-2.505,1.574-4.001,1.539c-0.113-0.008-0.223-0.01-0.332-0.02
				c-2.952-0.248-5.203-2.768-5.127-5.727c0.042-1.535,4.532-32.113,4.532-32.113c-1.125-0.236-2.19-0.613-3.181-1.123
				c0,0-25.189,44.379-26.407,46.148c-1.14,1.65-3.09,2.57-5.09,2.398c-0.968-0.082-1.902-0.418-2.705-0.973
				c-1.231-0.852-2.06-2.129-2.327-3.602c-0.271-1.473,0.051-2.961,0.899-4.193c1.22-1.762,33.455-41.18,33.455-41.18
				c-0.425-0.344-0.822-0.723-1.201-1.115c-10.191,10.766-25.463,26.877-26.31,27.59c-2.362,1.992-5.902,1.695-7.895-0.666
				c-1.991-2.359-1.691-5.9,0.669-7.895c0.849-0.713,19.423-13.141,31.755-21.375c-0.125-0.209-0.26-0.416-0.375-0.633
				c0,0-45.473,18.227-47.217,18.783c-0.71,0.229-1.444,0.313-2.181,0.248c-2.263-0.191-4.174-1.709-4.864-3.873
				c-0.456-1.424-0.331-2.943,0.352-4.27c0.685-1.332,1.849-2.316,3.272-2.773c1.743-0.559,49.344-11.994,49.344-11.994
				c-0.165-1.02-0.225-2.074-0.134-3.15c0.025-0.293,0.073-0.58,0.116-0.865c0,0-37.515-6.635-39.398-7.17
				c-2.969-0.844-4.699-3.947-3.855-6.92c0.732-2.574,3.193-4.281,5.855-4.055c0.358,0.029,0.718,0.094,1.065,0.193
				c1.882,0.535,37.314,14.633,37.314,14.633c0.67-1.48,1.606-2.811,2.751-3.924c0,0-44.094-46.308-45.479-47.946
				c-0.965-1.145-1.426-2.596-1.3-4.086c0.126-1.493,0.825-2.845,1.969-3.81c1.146-0.965,2.595-1.429,4.086-1.303
				c1.491,0.127,2.845,0.828,3.809,1.972c1.388,1.641,38.943,53.565,38.943,53.565c0.539-0.348,1.109-0.645,1.693-0.908
				c-7.186-15.741-19.527-42.794-19.765-43.489c-1.005-2.923,0.556-6.118,3.476-7.122c2.921-1.005,6.115,0.554,7.12,3.479
				c0.237,0.689,7.271,29.585,11.356,46.396c0.889-0.221,1.804-0.379,2.749-0.398c0,0-1.111-31.085-0.951-32.976
				c0.261-3.079,2.976-5.372,6.057-5.11c3.077,0.261,5.37,2.977,5.109,6.056c-0.161,1.9-6.515,32.492-6.515,32.492
				c1.117,0.307,2.164,0.764,3.135,1.338c0,0,26.371-46.34,27.595-48.125c1.136-1.661,3.092-2.587,5.101-2.417
				c0.958,0.081,1.886,0.414,2.687,0.961c2.547,1.747,3.204,5.241,1.455,7.79c-1.224,1.787-34.818,43.274-34.818,43.274
				c1.429,1.281,2.566,2.867,3.311,4.654c0,0,45.029-11.795,46.576-12.084c0.501-0.092,1.008-0.117,1.511-0.074
				c2.499,0.211,4.568,2.08,5.028,4.549c0.277,1.471-0.037,2.961-0.881,4.199c-0.846,1.232-2.121,2.064-3.593,2.34
				c-1.553,0.293-47.679,6.424-47.679,6.424c-0.008,0.213-0.006,0.424-0.024,0.639c-0.047,0.561-0.146,1.102-0.262,1.639
				c17.106,4.527,34.934,8.16,35.613,8.402C270.727-234.779,272.246-231.568,271.201-228.66z M228.89-246.171
				c0.432-5.086-3.357-9.576-8.445-10.008c-5.088-0.432-9.579,3.359-10.01,8.445c-0.432,5.09,3.358,9.58,8.447,10.012
				C223.969-237.29,228.459-241.08,228.89-246.171z"/>
			<path fill="#FED307" d="M215.757-237.642c-2.299-3.973-0.945-9.076,3.032-11.383c0.921-0.533,24.681-9.59,48.692-20.451
				c-0.755-1.516-1.322-3.105-1.65-4.739c0,0-87.744,5.725-90.396,5.725c-2.225,0-4.314-0.867-5.888-2.44
				c-1.575-1.576-2.44-3.665-2.44-5.887c0.003-2.227,0.866-4.318,2.441-5.893c1.572-1.572,3.666-2.437,5.889-2.439
				c2.639,0.004,90.219,4.457,90.219,4.457c0.289-2.045,0.9-4.051,1.85-5.932c0,0-36.162-28.397-37.884-29.929
				c-1.663-1.475-2.646-3.515-2.777-5.734c-0.134-2.22,0.612-4.358,2.088-6.02c0.114-0.125,0.224-0.246,0.339-0.362
				c3.113-3.112,8.131-3.255,11.42-0.331c1.703,1.519,32.135,35.928,32.135,35.928c1.347-1.051,2.797-1.899,4.326-2.535
				c0,0-26.271-71.152-27.111-74.232c-0.783-2.877,0.041-5.972,2.151-8.082c1.021-1.019,2.298-1.76,3.699-2.141
				c2.147-0.583,4.394-0.298,6.321,0.808c1.934,1.107,3.316,2.897,3.902,5.044c0.834,3.075,14.711,77.476,14.711,77.476
				c0.799-0.156,1.609-0.243,2.42-0.296c-2.463-21.898-6.127-54.689-6.127-56.334c0.001-4.593,3.733-8.331,8.325-8.331
				s8.327,3.736,8.327,8.328c-0.002,1.646-3.688,34.66-6.154,56.561c0.359,0.06,0.723,0.104,1.078,0.181
				c0,0,22.881-69.127,23.92-71.642c0.422-1.024,1.029-1.94,1.807-2.717c2.387-2.386,5.943-3.101,9.063-1.813
				c2.057,0.847,3.662,2.443,4.516,4.495c0.857,2.056,0.859,4.318,0.014,6.376c-1.035,2.517-33.673,67.547-33.673,67.547
				c1.318,0.791,2.572,1.732,3.707,2.867c0.31,0.309,0.588,0.64,0.871,0.964c0,0,43.497-36.258,45.909-37.882
				c3.805-2.565,8.992-1.555,11.559,2.253c2.221,3.298,1.799,7.728-1.01,10.537c-0.377,0.376-0.793,0.724-1.24,1.024
				c-2.412,1.624-52.39,28.361-52.39,28.361c1.043,2.183,1.655,4.518,1.821,6.884c0,0,78.479-5.699,81.664-5.703
				c2.225,0,4.316,0.869,5.887,2.44c1.576,1.576,2.443,3.664,2.441,5.889c-0.002,2.227-0.865,4.319-2.436,5.889
				c-1.574,1.572-3.668,2.438-5.891,2.438c-3.193,0.004-81.783-7.106-81.783-7.106c-0.122,0.945-0.331,1.877-0.593,2.797
				c24.769,6.922,67.331,18.836,68.347,19.231c4.283,1.662,6.418,6.496,4.76,10.775c-1.658,4.281-6.49,6.414-10.777,4.754
				c-1.01-0.391-40.576-20.1-63.585-31.57c-0.604,1.223-1.305,2.41-2.186,3.504c0,0,36.376,28.533,38.37,30.529
				c3.248,3.246,3.25,8.527,0,11.775c-3.244,3.246-8.527,3.244-11.775-0.002c-2.004-2.006-30.665-38.541-30.665-38.541
				c-1.42,0.975-2.941,1.727-4.523,2.277c0,0,22.626,56.17,23.479,59.271c0.799,2.883-0.025,5.992-2.145,8.111
				c-1.01,1.01-2.277,1.746-3.666,2.131c-4.428,1.219-9.024-1.385-10.245-5.814c-0.855-3.104-11.043-62.824-11.043-62.824
				c-2.825,0.393-5.718,0.166-8.46-0.701c0,0-29.764,62.451-30.918,64.488c-0.373,0.656-0.832,1.258-1.361,1.787
				c-2.635,2.635-6.743,3.195-9.99,1.35c-1.934-1.094-3.326-2.881-3.924-5.023c-0.59-2.143-0.311-4.389,0.787-6.326
				c1.154-2.041,38.402-60.314,38.402-60.314c-0.235-0.211-0.479-0.414-0.704-0.639c-0.591-0.592-1.112-1.223-1.608-1.869
				c-21.541,15.092-41.356,31.213-42.283,31.752C223.165-232.314,218.061-233.669,215.757-237.642z M274.808-268.271
				c5.365,5.365,14.1,5.365,19.464,0c5.369-5.369,5.367-14.104,0.002-19.467c-5.368-5.368-14.1-5.368-19.469,0
				C269.44-282.375,269.439-273.64,274.808-268.271z"/>
			<path fill="#A5CD39" d="M395.214-182.89c-2.891,1.988-6.861,1.258-8.855-1.637c-0.461-0.67-16.506-29.857-26.207-47.517
				c-1.109,0.666-2.289,1.193-3.514,1.539c0,0,6.928,32.676,7.086,34.697c0.131,1.695-0.406,3.34-1.512,4.631
				c-1.107,1.295-2.648,2.078-4.344,2.209c-1.695,0.131-3.342-0.404-4.635-1.512c-1.289-1.104-2.074-2.648-2.209-4.344
				c-0.152-2.012,0.688-35.162,0.688-35.162c-1.576-0.102-3.141-0.447-4.631-1.061c0,0-19.506,29.246-20.57,30.648
				c-1.027,1.355-2.523,2.226-4.207,2.457c-1.685,0.232-3.359-0.209-4.713-1.236c-0.102-0.078-0.201-0.154-0.297-0.236
				c-2.555-2.188-2.963-6.004-0.928-8.686c1.057-1.387,25.482-26.619,25.482-26.619c-0.881-0.965-1.613-2.021-2.189-3.148
				c0,0-52.679,24.238-54.978,25.061c-2.146,0.768-4.554,0.322-6.288-1.16c-0.838-0.719-1.478-1.65-1.852-2.693
				c-0.571-1.604-0.486-3.332,0.241-4.867c0.73-1.539,2.015-2.699,3.614-3.273c2.294-0.818,58.186-15.799,58.186-15.799
				c-0.166-0.6-0.279-1.213-0.369-1.828c-16.545,3.174-41.324,7.908-42.577,8.006c-3.501,0.271-6.572-2.352-6.844-5.852
				c-0.272-3.502,2.355-6.57,5.854-6.842c1.255-0.096,26.641,0.76,43.479,1.34c0.025-0.275,0.037-0.553,0.076-0.83
				c0,0-28.273-5.02-30.25-5.664c-0.807-0.264-1.541-0.67-2.18-1.217c-1.959-1.68-2.715-4.348-1.918-6.801
				c0.525-1.617,1.648-2.938,3.158-3.709c1.518-0.775,3.242-0.91,4.861-0.389c1.98,0.641,27.705,13.34,27.705,13.34
				c0.525-1.049,1.168-2.061,1.965-2.992c0.219-0.256,0.455-0.486,0.684-0.721c0,0-30.211-31.008-31.594-32.751
				c-2.18-2.748-1.717-6.763,1.035-8.945c2.381-1.885,5.783-1.829,8.09,0.148c0.309,0.267,0.6,0.56,0.854,0.883
				c1.381,1.744,24.725,38.252,24.725,38.252c1.6-0.92,3.344-1.527,5.137-1.793c0,0-7.258-37.165-7.447-39.593
				c-0.133-1.697,0.404-3.342,1.51-4.631c1.107-1.295,2.648-2.08,4.344-2.209c1.697-0.131,3.342,0.401,4.633,1.509
				c1.291,1.104,2.076,2.648,2.209,4.344c0.189,2.434-2.309,40.442-2.309,40.442c0.729,0.039,1.449,0.141,2.168,0.287
				c3.809-19.29,10.367-52.437,10.607-53.236c1.016-3.364,4.572-5.276,7.934-4.267c3.361,1.011,5.273,4.566,4.262,7.932
				c-0.238,0.795-12.918,32.121-20.299,50.338c0.967,0.387,1.916,0.851,2.801,1.459c0,0,13.416-22.254,14.816-23.893
				c2.283-2.666,6.309-2.982,8.979-0.697c2.666,2.281,2.977,6.309,0.695,8.977c-1.41,1.646-21.381,18.492-21.381,18.492
				c0.826,1.025,1.49,2.141,2.002,3.314c0,0,38.08-19.127,40.392-19.963c2.148-0.777,4.568-0.336,6.309,1.152
				c0.83,0.711,1.467,1.635,1.84,2.672c1.191,3.301-0.52,6.959-3.824,8.152c-2.315,0.836-43.836,10.693-43.836,10.693
				c0.469,2.129,0.467,4.348-0.033,6.488c0,0,34.953,12.33,36.574,13.09c0.522,0.246,1.01,0.559,1.443,0.934
				c2.164,1.852,2.834,4.949,1.621,7.533c-0.719,1.537-2,2.707-3.598,3.287c-1.598,0.576-3.326,0.498-4.867-0.223
				c-1.627-0.762-33.838-19.041-33.838-19.041c-0.145,0.191-0.287,0.387-0.445,0.574c-0.416,0.484-0.865,0.92-1.328,1.336
				c12.777,15.525,33.975,41.287,34.439,41.961C398.837-188.851,398.104-184.88,395.214-182.89z M360.636-237.701
				c3.772-4.406,3.254-11.063-1.152-14.834c-4.41-3.775-11.066-3.258-14.838,1.148c-3.775,4.41-3.258,11.068,1.152,14.842
				C350.206-232.773,356.862-233.29,360.636-237.701z"/>
			<path fill="#EB2227" d="M311.013-317.917c-2.082,1.065-4.645,0.24-5.711-1.844c-0.246-0.483-8.331-21.151-13.219-33.655
				c-0.79,0.343-1.616,0.59-2.454,0.714c0,0,1.761,22.185,1.69,23.535c-0.06,1.132-0.557,2.173-1.397,2.93
				c-0.843,0.76-1.93,1.145-3.062,1.085c-1.131-0.061-2.173-0.555-2.931-1.398c-0.758-0.841-1.143-1.93-1.085-3.063
				c0.072-1.342,3.485-23.172,3.485-23.172c-1.031-0.204-2.037-0.567-2.969-1.101c0,0-15.408,17.642-16.233,18.479
				c-0.795,0.806-1.858,1.252-2.991,1.259c-1.134,0.009-2.201-0.427-3.008-1.221c-0.06-0.063-0.119-0.121-0.175-0.185
				c-1.499-1.665-1.44-4.221,0.136-5.817c0.818-0.826,19.131-15.392,19.131-15.392c-0.498-0.714-0.891-1.474-1.175-2.27
				c0,0-36.895,11.474-38.484,11.819c-1.483,0.321-3.036-0.18-4.054-1.31c-0.491-0.546-0.834-1.216-0.992-1.938
				c-0.238-1.109-0.033-2.244,0.58-3.196c0.614-0.953,1.564-1.608,2.67-1.851c1.586-0.343,39.805-5.424,39.805-5.424
				c-0.057-0.409-0.08-0.824-0.085-1.239c-11.206,0.672-27.985,1.663-28.821,1.619c-2.337-0.123-4.141-2.119-4.018-4.456
				c0.122-2.336,2.123-4.139,4.458-4.016c0.838,0.045,17.534,2.8,28.61,4.634c0.041-0.18,0.071-0.362,0.121-0.542
				c0,0-18.246-5.754-19.498-6.35c-0.51-0.244-0.958-0.576-1.334-0.992c-1.149-1.278-1.419-3.106-0.681-4.659
				c0.486-1.023,1.342-1.798,2.406-2.179c1.07-0.381,2.221-0.321,3.244,0.163c1.255,0.595,17.155,11.203,17.155,11.203
				c0.438-0.648,0.949-1.263,1.557-1.809c0.166-0.15,0.342-0.281,0.514-0.417c0,0-17.288-23.092-18.051-24.363
				c-1.203-2.003-0.551-4.616,1.455-5.82c1.736-1.041,3.979-0.71,5.332,0.795c0.182,0.202,0.348,0.422,0.488,0.656
				c0.763,1.273,13.038,27.405,13.038,27.405c1.136-0.47,2.342-0.721,3.548-0.742c0,0-1.592-25.181-1.507-26.801
				c0.059-1.133,0.556-2.173,1.397-2.93c0.843-0.76,1.929-1.146,3.06-1.085c1.133,0.06,2.173,0.553,2.931,1.396
				c0.758,0.841,1.145,1.929,1.085,3.06c-0.084,1.625-5.011,26.522-5.011,26.522c0.477,0.088,0.944,0.219,1.406,0.376
				c4.181-12.416,11.371-33.751,11.599-34.259c0.961-2.135,3.477-3.092,5.609-2.135c2.135,0.957,3.092,3.472,2.133,5.607
				c-0.227,0.505-11.306,20.108-17.752,31.509c0.605,0.339,1.192,0.729,1.724,1.205c0,0,10.784-13.546,11.851-14.508
				c1.738-1.564,4.426-1.427,5.992,0.314c1.564,1.737,1.424,4.424-0.315,5.991c-1.072,0.967-15.722,10.374-15.722,10.374
				c0.457,0.749,0.801,1.542,1.037,2.362c0,0,26.81-9.354,28.409-9.707c1.488-0.328,3.049,0.173,4.07,1.306
				c0.486,0.542,0.828,1.207,0.984,1.923c0.504,2.284-0.943,4.553-3.228,5.058c-1.604,0.352-29.886,3.286-29.886,3.286
				c0.125,1.446-0.067,2.912-0.582,4.283c0,0,22.032,11.16,23.038,11.802c0.324,0.207,0.619,0.457,0.873,0.742
				c1.27,1.41,1.445,3.514,0.422,5.116c-0.607,0.955-1.557,1.616-2.66,1.863c-1.107,0.242-2.242,0.042-3.197-0.569
				c-1.01-0.643-20.717-15.496-20.717-15.496c-0.112,0.113-0.222,0.231-0.343,0.341c-0.317,0.284-0.652,0.532-0.993,0.767
				c7.102,11.362,18.889,30.21,19.139,30.695C313.921-321.544,313.095-318.982,311.013-317.917z M292.891-357.113
				c2.873-2.586,3.103-7.027,0.519-9.9c-2.589-2.874-7.032-3.105-9.903-0.52c-2.874,2.589-3.107,7.031-0.518,9.905
				C285.574-354.755,290.017-354.524,292.891-357.113z"/>
		</g>
		<g>
			<path fill="#FED307" d="M48.65-332.732c-2.299-3.973-0.945-9.076,3.032-11.383c0.921-0.533,24.681-9.59,48.692-20.451
				c-0.755-1.516-1.322-3.105-1.65-4.739c0,0-87.744,5.725-90.396,5.725c-2.225,0-4.314-0.867-5.888-2.439
				C0.865-367.595,0-369.684,0-371.906c0.003-2.227,0.866-4.318,2.441-5.893c1.572-1.572,3.666-2.438,5.889-2.439
				c2.639,0.004,90.219,4.457,90.219,4.457c0.289-2.045,0.9-4.051,1.85-5.932c0,0-36.162-28.397-37.884-29.929
				c-1.663-1.476-2.646-3.515-2.777-5.734c-0.134-2.22,0.612-4.358,2.088-6.02c0.114-0.125,0.224-0.246,0.339-0.362
				c3.113-3.112,8.131-3.255,11.42-0.331c1.703,1.518,32.135,35.928,32.135,35.928c1.347-1.051,2.797-1.899,4.326-2.535
				c0,0-26.271-71.152-27.111-74.232c-0.783-2.877,0.041-5.972,2.151-8.082c1.021-1.02,2.298-1.76,3.699-2.141
				c2.147-0.583,4.393-0.298,6.321,0.808c1.934,1.106,3.316,2.897,3.902,5.044c0.834,3.075,14.711,77.477,14.711,77.477
				c0.799-0.156,1.609-0.243,2.42-0.296c-2.463-21.898-6.127-54.69-6.127-56.334c0.001-4.593,3.733-8.331,8.325-8.331
				c4.592,0,8.327,3.736,8.327,8.328c-0.002,1.647-3.687,34.66-6.154,56.562c0.359,0.06,0.723,0.103,1.078,0.181
				c0,0,22.881-69.127,23.92-71.642c0.422-1.025,1.029-1.94,1.807-2.717c2.387-2.386,5.943-3.101,9.063-1.813
				c2.057,0.847,3.662,2.443,4.516,4.495c0.857,2.056,0.859,4.318,0.014,6.376c-1.035,2.517-33.673,67.547-33.673,67.547
				c1.318,0.791,2.572,1.732,3.707,2.867c0.311,0.31,0.588,0.64,0.871,0.964c0,0,43.497-36.258,45.909-37.882
				c3.805-2.565,8.992-1.555,11.559,2.253c2.221,3.298,1.799,7.729-1.01,10.537c-0.377,0.376-0.793,0.724-1.24,1.024
				c-2.412,1.624-52.39,28.361-52.39,28.361c1.043,2.183,1.655,4.519,1.821,6.884c0,0,78.479-5.699,81.664-5.703
				c2.225,0,4.316,0.869,5.887,2.439c1.576,1.576,2.443,3.664,2.441,5.889c-0.002,2.227-0.865,4.319-2.436,5.889
				c-1.574,1.572-3.668,2.438-5.891,2.438c-3.193,0.004-81.783-7.106-81.783-7.106c-0.122,0.945-0.331,1.878-0.593,2.797
				c24.768,6.922,67.331,18.836,68.347,19.23c4.283,1.662,6.418,6.496,4.76,10.775c-1.658,4.281-6.49,6.414-10.777,4.754
				c-1.01-0.391-40.576-20.1-63.585-31.57c-0.604,1.223-1.305,2.41-2.186,3.504c0,0,36.376,28.533,38.37,30.529
				c3.248,3.246,3.25,8.527,0,11.775c-3.244,3.246-8.527,3.244-11.775-0.002c-2.004-2.006-30.665-38.541-30.665-38.541
				c-1.42,0.975-2.941,1.727-4.524,2.277c0,0,22.626,56.17,23.479,59.271c0.799,2.883-0.025,5.992-2.145,8.111
				c-1.01,1.01-2.277,1.746-3.666,2.131c-4.428,1.219-9.024-1.385-10.245-5.815c-0.855-3.103-11.043-62.824-11.043-62.824
				c-2.825,0.393-5.718,0.166-8.46-0.701c0,0-29.764,62.451-30.918,64.488c-0.373,0.656-0.832,1.258-1.361,1.787
				c-2.635,2.635-6.743,3.195-9.99,1.35c-1.934-1.094-3.326-2.881-3.924-5.023c-0.59-2.143-0.312-4.389,0.787-6.326
				c1.154-2.041,38.402-60.314,38.402-60.314c-0.235-0.211-0.479-0.414-0.704-0.639c-0.591-0.592-1.112-1.223-1.608-1.869
				c-21.541,15.092-41.356,31.213-42.283,31.752C56.059-327.404,50.954-328.759,48.65-332.732z M107.701-363.361
				c5.365,5.365,14.1,5.365,19.464,0c5.369-5.369,5.367-14.104,0.002-19.467c-5.368-5.368-14.1-5.368-19.469,0
				C102.334-377.465,102.333-368.73,107.701-363.361z"/>
			<path fill="#A5CD39" d="M228.107-277.98c-2.891,1.988-6.861,1.258-8.855-1.637c-0.461-0.67-16.506-29.857-26.207-47.518
				c-1.109,0.666-2.289,1.193-3.514,1.539c0,0,6.928,32.676,7.086,34.697c0.131,1.695-0.406,3.34-1.512,4.631
				c-1.107,1.295-2.648,2.078-4.344,2.209c-1.695,0.131-3.342-0.404-4.635-1.512c-1.289-1.103-2.074-2.648-2.209-4.344
				c-0.152-2.012,0.688-35.162,0.688-35.162c-1.576-0.102-3.141-0.447-4.631-1.061c0,0-19.506,29.246-20.57,30.648
				c-1.027,1.355-2.523,2.227-4.207,2.457c-1.686,0.233-3.359-0.209-4.713-1.236c-0.102-0.078-0.201-0.154-0.297-0.236
				c-2.555-2.188-2.963-6.004-0.928-8.686c1.057-1.387,25.482-26.619,25.482-26.619c-0.881-0.965-1.613-2.021-2.19-3.148
				c0,0-52.679,24.238-54.977,25.06c-2.146,0.768-4.554,0.322-6.288-1.16c-0.838-0.719-1.477-1.65-1.852-2.693
				c-0.571-1.604-0.486-3.332,0.241-4.867c0.73-1.539,2.015-2.699,3.614-3.273c2.294-0.818,58.186-15.799,58.186-15.799
				c-0.166-0.6-0.279-1.213-0.369-1.828c-16.545,3.174-41.324,7.908-42.577,8.006c-3.501,0.272-6.572-2.352-6.844-5.852
				c-0.271-3.502,2.355-6.57,5.854-6.842c1.255-0.096,26.641,0.76,43.479,1.34c0.025-0.275,0.037-0.553,0.076-0.83
				c0,0-28.273-5.02-30.25-5.664c-0.807-0.264-1.541-0.67-2.18-1.217c-1.959-1.68-2.715-4.348-1.918-6.801
				c0.525-1.617,1.648-2.938,3.158-3.709c1.518-0.775,3.242-0.91,4.861-0.389c1.98,0.641,27.705,13.34,27.705,13.34
				c0.525-1.049,1.168-2.061,1.965-2.992c0.219-0.256,0.455-0.486,0.684-0.721c0,0-30.211-31.008-31.594-32.751
				c-2.18-2.748-1.717-6.763,1.035-8.945c2.381-1.885,5.783-1.829,8.09,0.147c0.309,0.267,0.6,0.561,0.854,0.883
				c1.381,1.744,24.725,38.253,24.725,38.253c1.6-0.92,3.344-1.527,5.137-1.793c0,0-7.258-37.165-7.447-39.593
				c-0.133-1.697,0.404-3.342,1.51-4.631c1.107-1.295,2.648-2.08,4.344-2.209c1.697-0.131,3.342,0.401,4.633,1.509
				c1.291,1.103,2.076,2.648,2.209,4.344c0.19,2.434-2.309,40.442-2.309,40.442c0.729,0.039,1.449,0.141,2.168,0.287
				c3.809-19.289,10.367-52.437,10.607-53.236c1.016-3.364,4.572-5.276,7.934-4.267c3.361,1.011,5.273,4.566,4.262,7.932
				c-0.238,0.795-12.918,32.121-20.299,50.338c0.967,0.387,1.916,0.852,2.801,1.459c0,0,13.416-22.254,14.816-23.893
				c2.283-2.666,6.309-2.982,8.979-0.697c2.666,2.281,2.977,6.309,0.695,8.977c-1.41,1.646-21.381,18.492-21.381,18.492
				c0.826,1.025,1.49,2.141,2.002,3.315c0,0,38.08-19.127,40.393-19.963c2.148-0.777,4.568-0.336,6.309,1.152
				c0.83,0.711,1.467,1.635,1.84,2.672c1.191,3.301-0.52,6.959-3.824,8.152c-2.314,0.836-43.836,10.693-43.836,10.693
				c0.469,2.129,0.467,4.348-0.033,6.488c0,0,34.953,12.33,36.574,13.09c0.521,0.246,1.01,0.559,1.443,0.934
				c2.164,1.852,2.834,4.949,1.621,7.533c-0.719,1.537-2,2.707-3.598,3.287c-1.598,0.576-3.326,0.498-4.867-0.223
				c-1.627-0.762-33.838-19.041-33.838-19.041c-0.145,0.191-0.287,0.387-0.445,0.574c-0.416,0.484-0.865,0.92-1.328,1.336
				c12.777,15.525,33.975,41.287,34.439,41.961C231.73-283.941,230.998-279.97,228.107-277.98z M193.529-332.79
				c3.771-4.406,3.254-11.063-1.152-14.834c-4.41-3.775-11.066-3.258-14.838,1.148c-3.775,4.41-3.258,11.068,1.152,14.842
				C183.1-327.863,189.756-328.38,193.529-332.79z"/>
		</g>
	</g>
</pattern>
<g>
	<path fill="#F69321" d="M54.677,3.828c0,0-3.732-3.671-8.927-3.828C47.237,0.355,51.501,1.628,54.677,3.828z"/>
	<path fill="#F69321" d="M56.293,6.163c0,0-1.229-1.715-5.729-3.693c-2.36-1.24-5.916-2.09-7.643-1.959
		c1.602,0.204,3.971,0.642,4.417,0.957c0.447,0.315,0.119,0.353,0.802,0.411C48.825,1.937,53.353,3.935,56.293,6.163z"/>
	<path fill="#F69321" d="M56.66,8.06c0,0-1.37-2.311-6.055-4.167c-1.078-0.314-4.15-2.414-6.326-2.578
		c-2.175-0.164-2.744-0.693-4.017-0.019c1.361-0.194,6.352,0.752,9.547,2.888c1.718,0.932,5.372,2.036,7.627,5.745
		C57.058,8.312,57.24,9.117,56.66,8.06z"/>
	<path fill="#F69321" d="M57.584,11.454c0,0-3.467-4.958-8.306-6.654c-2.173-0.692-6.911-2.537-13.061,0.336
		c-0.398,0.33-0.398,0.33-0.398,0.33s3.44-1.893,9.94-1.1c2.322,0.469,6.195,2.294,8.911,4.707c0.385,0.562,0.96,0.927,1.288,1.136
		C56.288,10.418,56.781,10.731,57.584,11.454z"/>
	<path fill="#F69321" d="M57.534,14.758c0,0-3.181-6.258-8.346-8.427c0,0-7.637-3.886-14.816,1.015
		c-0.113,0.168-0.188,0.28-0.188,0.28s5.591-4.313,14.012-0.999C50.593,7.791,54.413,10.258,57.534,14.758z"/>
	<path fill="#F69321" d="M44.06,13.701c0,0,0.15-0.223,1.571,0.16c1.421,0.384,2.293,1.057,2.583,2.599
		c0.29,1.541-0.666,9.278,1.766,13.218c-0.337,0.305-0.594,0.621-0.594,0.621s-1.567-2.073-1.942-5.066
		c-0.375-2.993-0.1-8.926-0.53-9.798c-0.43-0.872-2.39-1.439-3.456-1.038c-0.474,0.377-1.666,2.415-2.058,5.958
		c-0.393,3.543,0.93,8.216,5.525,12.292c-0.857-0.105-0.857-0.105-0.857-0.105s-4.332-3.151-5.83-8.814
		c-0.564-2.514-0.071-6.272,1.057-7.952C42.424,14.099,42.711,13.803,44.06,13.701z"/>
	<path fill="#F69321" d="M37.699,17.844c-0.469,2.736,0.079,5.998,1.838,9.232c1.759,3.234,4.886,5.22,4.886,5.22s0,0,0.051-0.207
		c-0.705-0.528-3.516-3.511-4.301-5.368c-2.319-7.661,0.419-11.87,1.139-12.611c0.718-0.741,2.375-1.365,3.362-1.258
		c0.988,0.109,2.066,0.674,2.62,0.507c1.795,1.141,2.158,4.086,2.094,7.797c-0.064,3.712,1.418,7.688,1.418,7.688
		c0.429-0.047,0.377-0.758,0.292-1.092c-0.768-3.921-0.869-5.742-0.751-6.905c0.118-1.162,0.276-1.661-0.596-4.571
		c-0.873-2.909-1.903-3.085-1.903-3.085s-0.314-0.519-0.716-0.775c-2.57-1.632-4.269-1.075-4.269-1.075
		C39.24,12.196,38.168,15.108,37.699,17.844z M39.445,14.522c0.345-0.579,3.172-3.933,6.679-1.985c0,0-2.332-0.803-4.751,0.496
		c-0.768,0.55-2.537,2.659-2.869,7.559C38.173,18.584,38.151,16.974,39.445,14.522z"/>
	<path fill="#F69321" d="M48.501,30.895c0,0-3.094-4.6-3.345-8.633c-0.585-2.088-0.168-4.419,0.158-4.97
		c0.326-0.551,0.908-2.337-0.378-2.396c-0.913-0.021-2.206,1.114-2.739,4.209c-0.533,3.094-0.658,7.686,4.831,12.93
		c-2.864-3.496-4.758-10.408-3.898-13.135c0.356-1.451,0.82-2.274,1.168-2.332c0.348-0.059,0.171,0.468-0.036,0.776
		C44.057,17.652,42.73,27.189,48.501,30.895z"/>
	<path fill="#F69321" d="M45.999,16.93c0,0-1.073,1.993-0.304,5.516c0.445,2.758,1.22,5.286,1.824,6.03
		c-0.334-1.41-1.315-4.947-1.343-6.482c-0.028-1.536-0.115-2.788,0.05-3.362C46.391,18.057,46.389,16.218,45.999,16.93z"/>
	<path fill="#F69321" d="M51.907,27.469c0,0-0.598-5.29-0.44-8.024c0.158-2.734-1.185-6.981-5.602-8.429
		c-4.416-1.449-8.093,1.725-9.094,6.239c-1,4.514,1.4,11.988,7.252,15.705c-0.628,0.08-0.628,0.08-0.628,0.08
		s-2.562-0.891-5.409-5.034c-2.435-3.543-2.611-5.451-2.77-8.107c-0.159-2.656,0.918-5.245,2.855-7.209
		c1.936-1.963,3.643-3.713,8.122-2.425c2.618,0.705,5.636,3.381,5.847,7.867c0.147,1.49,0.158,8.444,0.269,8.674
		C52.419,27.036,52.024,27.623,51.907,27.469z"/>
	<path fill="#F69321" d="M42.384,33.556c0,0-1.675-1.583-2.357-2.016c-0.681-0.433-2.095-2.009-2.792-3.011
		c-0.697-1.001-3.471-6.077-3.193-9.254c0.141-1.787,0.211-3.14,1.931-5.24c1.72-2.101,2.716-3.584,7.16-4.674
		c1.175-0.171,5.622,1.296,6.273,1.71c0.65,0.413,1.46,1.247,2.185,2.665c0.726,1.419,2.166,3.812,2.263,5.31
		c0.098,1.499,0.037,4.615-0.255,5.707c-0.292,1.092-0.292,1.092-0.292,1.092s0.888-0.993,1.1-2.295
		c0.212-1.302,0.329-4.502-1.149-7.956c-0.621-1.312-0.881-2.436-2.208-4.078c0,0-0.645-1.408-3.777-2.399
		c-3.133-0.993-6.277-0.914-9.154,1.33c-2.878,2.244-4.947,5.72-5.023,9.385c-0.076,3.664,1.443,6.466,3.579,9.14
		c2.135,2.674,5.056,4.769,5.056,4.769L42.384,33.556z"/>
	<path fill="#F69321" d="M37.464,31.149c0,0-3.945-3.465-4.921-5.761c-0.974-2.296-0.451-3.8-0.293-7.651
		c0.159-3.852,1.552-4.284,2.003-4.756c0.45-0.473,4.117-3.892,5.07-4.324c0.953-0.433,2.867-1.572,7.403-0.367
		c4.536,1.205,6.709,4.94,7.227,6.667c0.518,1.727,1.143,2.243,0.993,1.349c-0.15-0.894-1.039-4.373-3.891-6.504
		c-2.853-2.132-5.713-3.07-8.653-2.902c-2.94,0.169-3.33,1.078-4.834,2.199c-1.504,1.12-3.66,3.344-4.177,3.654
		c-0.517,0.311-1.792,1.417-1.91,2.779c-0.12,1.361-0.054,6.194-0.032,8.004C31.469,25.344,34.414,29.771,37.464,31.149z"/>
	<path fill="#F69321" d="M33.6,28.614c0,0-2.923-3.933-3.445-5.063C30.107,24.28,31.616,28.871,33.6,28.614z"/>
	<path fill="#F69321" d="M30.81,22.051c0,0-0.865-4.302-0.269-6.439c0.596-2.136,0.825-3.069,2.383-3.876
		c1.558-0.807,4.37-3.611,4.37-3.611s-3.705,2.556-4.41,2.947c-0.704,0.391-2.425,1.373-2.836,4.945
		C30.011,18.11,29.771,21.031,30.81,22.051z"/>
	<path fill="#F69321" d="M55.346,22.348c0,0-0.743-2.707-0.34-3.57c0.402-0.862,0.875-2.158,0.022-3.978
		c-0.854-1.82-0.378-2.396-2.777-4.678c-2.398-2.282-5.349-3.478-8.691-3.765c-3.075-0.157-5.812,0.499-8.084,2.17
		c-1.846,1.302-3.194,2.322-3.194,2.322s-0.124-0.079,0.102-0.415c0.225-0.336,2.034-1.582,2.784-2.303
		c0.749-0.721,3.664-1.904,5.194-2.209c1.531-0.305,9.792-0.766,14.651,6.992c1.084,1.806,1.868,4.979,1.868,4.979
		s-0.24,0.686-0.201,0.431c0.039-0.255-0.562,0.441-0.707,0.789C55.828,19.461,55.855,22.512,55.346,22.348z"/>
</g>
<g>
	<g>
		<path fill="url(#Bugaboo)" d="M54.682,4.023c0,0-3.732-3.671-8.927-3.828C47.243,0.551,51.507,1.824,54.682,4.023z"/>
		<path fill="url(#Bugaboo)" d="M56.299,6.358c0,0-1.229-1.715-5.729-3.693c-2.36-1.24-5.916-2.09-7.643-1.959
			c1.602,0.205,3.971,0.642,4.418,0.957c0.447,0.315,0.119,0.353,0.802,0.411C48.83,2.132,53.358,4.131,56.299,6.358z"/>
		<path fill="url(#Bugaboo)" d="M56.666,8.256c0,0-1.37-2.311-6.055-4.167c-1.078-0.314-4.15-2.414-6.326-2.578
			c-2.175-0.164-2.744-0.693-4.017-0.019c1.361-0.194,6.352,0.752,9.547,2.888c1.718,0.932,5.372,2.036,7.627,5.745
			C57.063,8.507,57.245,9.312,56.666,8.256z"/>
		<path fill="url(#Bugaboo)" d="M57.59,11.649c0,0-3.467-4.958-8.306-6.654c-2.172-0.692-6.911-2.537-13.061,0.336
			c-0.398,0.33-0.398,0.33-0.398,0.33s3.44-1.893,9.94-1.1c2.322,0.469,6.195,2.294,8.911,4.708c0.385,0.562,0.96,0.927,1.288,1.136
			C56.294,10.613,56.786,10.927,57.59,11.649z"/>
		<path fill="url(#Bugaboo)" d="M57.539,14.953c0,0-3.181-6.258-8.346-8.427c0,0-7.637-3.886-14.816,1.015
			c-0.113,0.168-0.188,0.28-0.188,0.28s5.591-4.313,14.012-1C50.599,7.987,54.419,10.453,57.539,14.953z"/>
		<path fill="url(#Bugaboo)" d="M44.066,13.897c0,0,0.15-0.224,1.571,0.16c1.421,0.384,2.293,1.058,2.583,2.599
			c0.29,1.541-0.667,9.278,1.766,13.219c-0.337,0.305-0.594,0.621-0.594,0.621s-1.567-2.073-1.942-5.066
			c-0.375-2.993-0.1-8.926-0.53-9.798c-0.43-0.872-2.391-1.439-3.456-1.037c-0.474,0.377-1.666,2.415-2.059,5.958
			c-0.392,3.543,0.93,8.216,5.525,12.292c-0.857-0.105-0.857-0.105-0.857-0.105s-4.332-3.151-5.83-8.814
			c-0.564-2.514-0.07-6.273,1.058-7.952C42.429,14.295,42.716,13.998,44.066,13.897z"/>
		<path fill="url(#Bugaboo)" d="M37.704,18.04c-0.469,2.736,0.079,5.998,1.838,9.232c1.759,3.234,4.886,5.22,4.886,5.22
			s0,0,0.051-0.207c-0.705-0.528-3.516-3.511-4.301-5.368c-2.319-7.661,0.419-11.87,1.139-12.61
			c0.718-0.741,2.375-1.365,3.362-1.258c0.988,0.108,2.066,0.674,2.62,0.507c1.795,1.14,2.158,4.086,2.094,7.797
			c-0.064,3.712,1.418,7.688,1.418,7.688c0.429-0.047,0.377-0.758,0.292-1.092c-0.768-3.921-0.869-5.742-0.751-6.904
			c0.118-1.163,0.276-1.661-0.596-4.571c-0.872-2.909-1.903-3.085-1.903-3.085s-0.314-0.519-0.716-0.775
			c-2.57-1.633-4.269-1.075-4.269-1.075C39.245,12.392,38.173,15.304,37.704,18.04z M39.45,14.718
			c0.345-0.579,3.172-3.934,6.679-1.986c0,0-2.332-0.803-4.751,0.496c-0.768,0.55-2.537,2.659-2.869,7.559
			C38.179,18.78,38.156,17.169,39.45,14.718z"/>
		<path fill="url(#Bugaboo)" d="M48.507,31.09c0,0-3.094-4.6-3.345-8.633c-0.585-2.088-0.168-4.419,0.158-4.97
			c0.326-0.551,0.908-2.337-0.378-2.396c-0.913-0.021-2.206,1.114-2.739,4.209c-0.533,3.094-0.658,7.686,4.832,12.93
			c-2.864-3.496-4.758-10.408-3.898-13.135c0.356-1.451,0.82-2.274,1.169-2.332c0.348-0.059,0.171,0.468-0.036,0.776
			C44.062,17.847,42.736,27.384,48.507,31.09z"/>
		<path fill="url(#Bugaboo)" d="M46.005,17.125c0,0-1.073,1.993-0.304,5.516c0.445,2.758,1.22,5.286,1.824,6.03
			c-0.334-1.41-1.315-4.947-1.343-6.482c-0.029-1.536-0.115-2.788,0.05-3.362C46.397,18.252,46.395,16.414,46.005,17.125z"/>
		<path fill="url(#Bugaboo)" d="M51.912,27.665c0,0-0.598-5.291-0.44-8.024c0.158-2.734-1.185-6.981-5.602-8.429
			c-4.416-1.449-8.093,1.725-9.094,6.239c-1.001,4.514,1.4,11.988,7.252,15.705c-0.628,0.08-0.628,0.08-0.628,0.08
			s-2.562-0.891-5.409-5.034c-2.435-3.543-2.612-5.451-2.77-8.107c-0.159-2.656,0.918-5.245,2.855-7.209
			c1.937-1.963,3.643-3.713,8.122-2.425c2.618,0.705,5.636,3.38,5.847,7.866c0.147,1.491,0.158,8.444,0.269,8.674
			C52.424,27.231,52.029,27.819,51.912,27.665z"/>
		<path fill="url(#Bugaboo)" d="M42.39,33.751c0,0-1.675-1.583-2.357-2.015c-0.681-0.433-2.095-2.01-2.792-3.012
			c-0.697-1.001-3.471-6.077-3.193-9.254c0.141-1.787,0.211-3.14,1.931-5.24c1.72-2.101,2.716-3.584,7.16-4.674
			c1.175-0.171,5.622,1.296,6.273,1.71c0.65,0.413,1.46,1.246,2.185,2.665c0.725,1.419,2.166,3.812,2.263,5.31
			c0.098,1.499,0.037,4.615-0.255,5.707c-0.292,1.092-0.292,1.092-0.292,1.092s0.888-0.993,1.1-2.295
			c0.212-1.302,0.329-4.502-1.149-7.956c-0.62-1.312-0.881-2.436-2.208-4.077c0,0-0.645-1.408-3.777-2.4
			c-3.133-0.992-6.277-0.914-9.154,1.33c-2.877,2.244-4.947,5.72-5.023,9.385c-0.076,3.664,1.443,6.466,3.578,9.139
			c2.135,2.674,5.056,4.77,5.056,4.77L42.39,33.751z"/>
		<path fill="url(#Bugaboo)" d="M37.469,31.344c0,0-3.945-3.465-4.921-5.761c-0.975-2.296-0.451-3.8-0.293-7.651
			c0.159-3.852,1.552-4.284,2.003-4.756c0.45-0.473,4.117-3.892,5.069-4.324c0.953-0.433,2.867-1.572,7.403-0.367
			c4.536,1.205,6.709,4.94,7.227,6.667c0.518,1.727,1.143,2.243,0.993,1.349c-0.15-0.894-1.038-4.372-3.891-6.504
			c-2.853-2.132-5.713-3.07-8.652-2.902c-2.94,0.169-3.33,1.078-4.834,2.199c-1.504,1.121-3.66,3.344-4.178,3.654
			c-0.517,0.311-1.791,1.417-1.91,2.779c-0.12,1.361-0.053,6.195-0.032,8.004C31.474,25.539,34.42,29.966,37.469,31.344z"/>
		<path fill="url(#Bugaboo)" d="M33.606,28.81c0,0-2.923-3.933-3.445-5.063C30.112,24.475,31.622,29.067,33.606,28.81z"/>
		<path fill="url(#Bugaboo)" d="M30.815,22.246c0,0-0.865-4.302-0.269-6.439c0.596-2.136,0.825-3.069,2.383-3.876
			c1.558-0.807,4.37-3.611,4.37-3.611s-3.705,2.556-4.41,2.947c-0.704,0.391-2.424,1.374-2.836,4.945
			C30.017,18.306,29.777,21.227,30.815,22.246z"/>
		<path fill="url(#Bugaboo)" d="M55.352,22.544c0,0-0.743-2.707-0.34-3.57c0.402-0.862,0.875-2.158,0.022-3.978
			c-0.854-1.82-0.378-2.397-2.777-4.678c-2.398-2.282-5.35-3.478-8.691-3.765c-3.075-0.157-5.812,0.499-8.084,2.17
			c-1.846,1.302-3.195,2.322-3.195,2.322s-0.123-0.078,0.102-0.414c0.225-0.336,2.034-1.582,2.784-2.303
			c0.749-0.721,3.664-1.904,5.194-2.209c1.531-0.305,9.791-0.766,14.651,6.992c1.083,1.806,1.868,4.979,1.868,4.979
			s-0.24,0.686-0.201,0.432c0.039-0.255-0.562,0.441-0.707,0.789C55.834,19.656,55.861,22.707,55.352,22.544z"/>
	</g>
</g>
<path fill="#333333" stroke="#FFFFFF" stroke-width="2" stroke-miterlimit="10" d="M32.089,19.052h2.701v-8.839
	c0-0.64,0.184-1.15,0.553-1.532c0.184-0.191,0.388-0.328,0.61-0.412c0.222-0.085,0.534-0.137,0.936-0.16v10.944h2.099v2.071h-6.9
	V19.052z"/>
<path fill="#333333" stroke="#FFFFFF" stroke-width="2" stroke-miterlimit="10" d="M38.028,21.124v-2.071h2.034
	c-0.282-0.471-0.486-0.926-0.61-1.364c-0.125-0.438-0.187-0.892-0.187-1.364c0-0.662,0.111-1.28,0.334-1.852
	c0.222-0.572,0.567-1.094,1.033-1.565c0.456-0.427,0.949-0.758,1.481-0.993c0.531-0.236,1.133-0.354,1.806-0.354h2.848
	c-0.032,0.404-0.095,0.716-0.187,0.934c-0.093,0.219-0.231,0.424-0.415,0.614c-0.185,0.191-0.391,0.331-0.618,0.421
	c-0.228,0.09-0.499,0.134-0.814,0.134h-0.814c-0.347,0-0.667,0.071-0.96,0.211c-0.293,0.14-0.564,0.328-0.814,0.564
	c-0.239,0.28-0.426,0.572-0.561,0.875c-0.136,0.304-0.204,0.64-0.204,1.01c0,0.337,0.076,0.673,0.228,1.01
	c0.152,0.337,0.331,0.646,0.537,0.926v-0.017c0.239,0.247,0.515,0.444,0.83,0.59c0.315,0.146,0.629,0.218,0.944,0.218h2.669
	c0.25,0,0.483,0.04,0.7,0.118s0.418,0.208,0.602,0.387c0.185,0.169,0.32,0.362,0.407,0.581c0.087,0.219,0.141,0.547,0.163,0.985
	H38.028z"/>
<g>
	<g>
		<path fill="#58595B" d="M4.41,21.124H0V8.075c0.358,0.034,0.656,0.104,0.895,0.21c0.239,0.107,0.429,0.239,0.57,0.395
			c0.206,0.191,0.361,0.421,0.464,0.69c0.103,0.27,0.155,0.55,0.155,0.842v8.839H4.41V21.124z"/>
		<path fill="#58595B" d="M3.368,21.124v-2.071h3.694c-0.315-0.471-0.529-0.92-0.643-1.346c-0.114-0.427-0.171-0.887-0.171-1.381
			c0-0.46,0.057-0.895,0.171-1.305c0.114-0.41,0.311-0.839,0.594-1.288c-0.597-0.09-1.025-0.269-1.285-0.538
			c-0.076-0.078-0.147-0.163-0.212-0.253c-0.065-0.09-0.12-0.196-0.163-0.32c-0.044-0.123-0.081-0.269-0.114-0.438
			c-0.032-0.169-0.054-0.376-0.065-0.623h9.666c0.651,0,1.258,0.132,1.823,0.395c0.564,0.264,1.058,0.609,1.481,1.036
			c0.879,0.943,1.318,2.071,1.318,3.384c0,0.505-0.057,0.96-0.171,1.364c-0.114,0.404-0.334,0.842-0.659,1.313h2.083v2.071H3.368z
			 M12.204,19.052v-2.727c0-0.348-0.071-0.671-0.212-0.968c-0.141-0.297-0.342-0.581-0.602-0.85
			c-0.141-0.145-0.304-0.291-0.488-0.438c-0.185-0.145-0.353-0.246-0.504-0.303h-0.147c-0.185,0.056-0.38,0.149-0.586,0.278
			c-0.206,0.129-0.396,0.272-0.57,0.429c-0.217,0.27-0.388,0.562-0.513,0.876c-0.125,0.315-0.187,0.64-0.187,0.977
			c0,0.37,0.063,0.71,0.187,1.018c0.124,0.309,0.306,0.604,0.545,0.884v-0.017c0.542,0.562,1.128,0.842,1.757,0.842H12.204z
			 M14.303,19.052h0.537c0.336,0,0.659-0.067,0.968-0.202c0.309-0.135,0.594-0.326,0.854-0.573c0.249-0.291,0.448-0.592,0.594-0.901
			c0.147-0.308,0.22-0.643,0.22-1.002c0-0.381-0.063-0.709-0.187-0.985c-0.125-0.275-0.323-0.541-0.594-0.8
			c-0.271-0.258-0.561-0.46-0.871-0.606c-0.309-0.146-0.637-0.219-0.984-0.219h-1.318c0.26,0.449,0.456,0.882,0.586,1.297
			c0.13,0.415,0.195,0.836,0.195,1.262V19.052z"/>
		<path fill="#58595B" d="M21.837,19.052v-2.711c0-1.313,0.439-2.458,1.318-3.434c0.488-0.427,1.009-0.758,1.562-0.993
			c0.553-0.236,1.15-0.354,1.79-0.354c0.651,0,1.245,0.121,1.782,0.362c0.537,0.242,1.055,0.576,1.554,1.002
			c0.412,0.483,0.74,1.007,0.984,1.575c0.244,0.567,0.366,1.182,0.366,1.843c0,0.472-0.065,0.923-0.195,1.356
			c-0.13,0.432-0.336,0.884-0.618,1.355h2.587v2.071H20.291v-2.071H21.837z M23.92,19.052h2.587c0.326,0,0.64-0.072,0.944-0.218
			c0.304-0.146,0.569-0.331,0.797-0.556c0.217-0.291,0.407-0.606,0.57-0.942c0.163-0.337,0.244-0.668,0.244-0.994
			c0-0.359-0.071-0.69-0.212-0.993c-0.141-0.303-0.342-0.6-0.602-0.892c-0.25-0.28-0.507-0.483-0.773-0.606
			c-0.266-0.123-0.589-0.185-0.968-0.185c-0.369,0-0.686,0.062-0.952,0.185c-0.266,0.124-0.524,0.326-0.773,0.606
			c-0.25,0.269-0.456,0.562-0.618,0.876c-0.163,0.315-0.244,0.651-0.244,1.01V19.052z"/>
		<path fill="#58595B" d="M32.089,19.052h2.701v-8.839c0-0.64,0.184-1.15,0.553-1.532c0.184-0.191,0.388-0.328,0.61-0.412
			c0.222-0.085,0.534-0.137,0.936-0.16v10.944h2.099v2.071h-6.9V19.052z"/>
		<path fill="#58595B" d="M38.028,21.124v-2.071h2.034c-0.282-0.471-0.486-0.926-0.61-1.364c-0.125-0.438-0.187-0.892-0.187-1.364
			c0-0.662,0.111-1.28,0.334-1.852c0.222-0.572,0.567-1.094,1.033-1.565c0.456-0.427,0.949-0.758,1.481-0.993
			c0.531-0.236,1.133-0.354,1.806-0.354h2.848c-0.032,0.404-0.095,0.716-0.187,0.934c-0.093,0.219-0.231,0.424-0.415,0.614
			c-0.185,0.191-0.391,0.331-0.618,0.421c-0.228,0.09-0.499,0.134-0.814,0.134h-0.814c-0.347,0-0.667,0.071-0.96,0.211
			c-0.293,0.14-0.564,0.328-0.814,0.564c-0.239,0.28-0.426,0.572-0.561,0.875c-0.136,0.304-0.204,0.64-0.204,1.01
			c0,0.337,0.076,0.673,0.228,1.01c0.152,0.337,0.331,0.646,0.537,0.926v-0.017c0.239,0.247,0.515,0.444,0.83,0.59
			c0.315,0.146,0.629,0.218,0.944,0.218h2.669c0.25,0,0.483,0.04,0.7,0.118s0.418,0.208,0.602,0.387
			c0.185,0.169,0.32,0.362,0.407,0.581c0.087,0.219,0.141,0.547,0.163,0.985H38.028z"/>
	</g>
</g>
<g>
</g>
<g>
</g>
<g>
</g>
<g>
</g>
<g>
</g>
<g>
</g>
</svg>
